<?xml version="1.0" encoding="UTF-8"?>
<svg id="Capa_2" data-name="Capa 2" xmlns="http://www.w3.org/2000/svg" viewBox="0 0 537.96 226.41">
  <defs>
    <style>
      .cls-1 {
        fill: #ed702e;
      }

      .cls-1, .cls-2, .cls-3 {
        stroke: #4e171a;
      }

      .cls-1, .cls-2, .cls-3, .cls-4, .cls-5, .cls-6, .cls-7 {
        stroke-miterlimit: 10;
      }

      .cls-1, .cls-2, .cls-3, .cls-5, .cls-6 {
        stroke-width: 1.95px;
      }

      .cls-2 {
        fill: #6ba457;
      }

      .cls-8 {
        fill: #55c0f4;
      }

      .cls-8, .cls-9, .cls-10, .cls-11 {
        stroke-width: 0px;
      }

      .cls-3 {
        fill: #88cfd5;
      }

      .cls-12 {
        fill: none;
        stroke-linecap: round;
        stroke-linejoin: round;
      }

      .cls-12, .cls-7 {
        stroke: #491c19;
        stroke-width: 9.76px;
      }

      .cls-9 {
        fill: #cecece;
      }

      .cls-4 {
        fill: #f6c657;
        stroke: #491218;
        stroke-width: 2.93px;
      }

      .cls-5, .cls-6 {
        stroke: #501612;
      }

      .cls-5, .cls-10 {
        fill: #fff;
      }

      .cls-6 {
        fill: #bbecff;
      }

      .cls-7 {
        fill: #ef3e38;
      }

      .cls-11 {
        fill: #491c19;
      }
    </style>
  </defs>
  <g id="Capa_1-2" data-name="Capa 1">
    <g>
      <polygon class="cls-9" points="0 132 123.28 132 123.28 188.8 44.82 188.8 44.82 165.2 0 165.2 0 202.81 30.82 202.81 30.82 226.41 137.29 226.41 137.29 202.81 168.11 202.81 168.11 118 137.28 118 137.28 94.4 44.82 94.4 44.82 37.6 168.11 37.6 168.11 0 0 0 0 132"/>
      <path class="cls-9" d="M322.45,23.6h-30.82V0h-44.82v23.6h-30.82v23.6h-30.82v132h30.82v23.6h30.82v23.6h44.82v-23.6h30.82v-23.6h30.82V47.2h-30.82v-23.6ZM277.63,188.8h-16.82v-23.6h-30.82V61.2h30.82v-23.6h16.82v23.6h30.82v104h-30.82v23.6Z"/>
      <path class="cls-9" d="M537.96,47.2h-30.82v-23.6h-30.82V0h-44.82v23.6h-30.82v23.6h-30.82v132h30.82v23.6h30.82v23.6h44.82v-23.6h30.82v-23.6h30.82V47.2ZM462.31,165.2v23.6h-16.82v-23.6h-30.82V61.2h30.82v-23.6h16.82v23.6h30.82v104h-30.82Z"/>
      <g>
        <rect class="cls-7" x="197.9" y="7.82" width="142.64" height="211.16" rx="15.42" ry="15.42"/>
        <path class="cls-6" d="M318.9,184.95h-81.82s-24.32-13.93-24.32-13.93v-90.2c0-3.15,3.04-5.7,6.79-5.7h99.36c3.75,0,6.79,2.55,6.79,5.7v98.43c0,3.15-3.04,5.7-6.79,5.7Z"/>
        <path class="cls-12" d="M339.69,36.54h-30.83c-1.97,0-3.86.78-5.25,2.18l-21.79,21.79c-1.39,1.39-3.28,2.18-5.25,2.18h-77.19"/>
        <path class="cls-4" d="M229.62,194.68l-13.73-7.93c-1.3-.75-2.93.19-2.93,1.69v15.86c0,1.5,1.63,2.44,2.93,1.69l13.73-7.93c1.3-.75,1.3-2.63,0-3.38Z"/>
        <circle class="cls-5" cx="225.58" cy="34.46" r="11.84"/>
        <circle class="cls-1" cx="248.4" cy="27.46" r="4.52"/>
        <circle class="cls-3" cx="262.45" cy="27.46" r="4.52"/>
        <circle class="cls-2" cx="276.5" cy="27.46" r="4.52"/>
        <circle class="cls-8" cx="225.58" cy="34.46" r="10.23"/>
        <circle class="cls-10" cx="225.58" cy="34.46" r="3.77"/>
        <path class="cls-10" d="M309.43,174.49h-66.24s-19.69-11.28-19.69-11.28v-73.02c0-2.55,2.46-4.62,5.49-4.62h80.43c3.03,0,5.49,2.07,5.49,4.62v79.68c0,2.55-2.46,4.62-5.49,4.62Z"/>
        <g>
          <g>
            <polygon class="cls-11" points="262.13 107.67 258.9 107.67 254.79 113.66 250.47 107.67 247.13 107.67 253.22 115.9 247.13 124.33 250.37 124.33 254.76 118.04 259.23 124.33 262.47 124.33 256.33 115.8 262.13 107.67"/>
            <polygon class="cls-11" points="284.33 115.8 290.13 107.67 286.9 107.67 282.79 113.66 278.47 107.67 275.13 107.67 281.22 115.9 275.13 124.33 278.37 124.33 282.76 118.04 287.23 124.33 290.47 124.33 284.33 115.8"/>
          </g>
          <path class="cls-11" d="M297,145.14c-5.28-3.29-13.91-7.35-25.03-8.01-14.62-.87-25.93,4.64-31.36,8.01-.61.38-.8,1.18-.42,1.79.25.4.67.62,1.11.62.23,0,.47-.06.68-.19,5.18-3.2,15.95-8.44,29.84-7.62,10.57.63,18.78,4.49,23.81,7.62.61.38,1.41.19,1.79-.42.38-.61.19-1.41-.42-1.79Z"/>
        </g>
      </g>
    </g>
  </g>
</svg>