<?xml version="1.0" encoding="UTF-8"?>
<svg xmlns="http://www.w3.org/2000/svg" viewBox="0 0 596.97 225.9">
  <defs>
    <style>
      .cls-1 {
        isolation: isolate;
      }

      .cls-2 {
        stroke-width: 9.21px;
      }

      .cls-2, .cls-3, .cls-4, .cls-5 {
        stroke: #491c19;
      }

      .cls-2, .cls-3, .cls-5 {
        stroke-linecap: round;
        stroke-linejoin: round;
      }

      .cls-2, .cls-4 {
        fill: none;
      }

      .cls-3 {
        fill: #f6c657;
      }

      .cls-3, .cls-5 {
        stroke-width: 5.16px;
      }

      .cls-6 {
        fill: #000;
        mix-blend-mode: multiply;
        opacity: .1;
      }

      .cls-6, .cls-7, .cls-8, .cls-9 {
        stroke-width: 0px;
      }

      .cls-7 {
        fill: #cecece;
      }

      .cls-8 {
        fill: #ef3e38;
      }

      .cls-4 {
        stroke-miterlimit: 10;
        stroke-width: 18.41px;
      }

      .cls-9, .cls-5 {
        fill: #fff;
      }
    </style>
  </defs>
  <g class="cls-1">
    <g id="Capa_2" data-name="Capa 2">
      <g id="Capa_1-2" data-name="Capa 1">
        <g>
          <path class="cls-7" d="M144.11,0h-79.05v23.73h-32.53v47.45H0v107.27h97.58v47.45h46.53v-47.45h32.53v-36.09h-32.53V0ZM46.53,83.54h32.53v-47.45h18.53v106.27h-51.06v-58.82Z"/>
          <path class="cls-7" d="M349.28,23.73h-32.53V0h-46.53v23.73h-32.53v23.73h-32.53v131h32.53v23.73h32.53v23.73h46.53v-23.73h32.53v-23.73h32.53V47.45h-32.53v-23.73ZM335.28,166.09h-32.53v23.73h-18.53v-23.73h-32.53V59.82h32.53v-23.73h18.53v23.73h32.53v106.27Z"/>
          <path class="cls-7" d="M564.44,142.36V0h-79.05v23.73h-32.53v47.45h-32.53v107.27h97.58v47.45h46.53v-47.45h32.53v-36.09h-32.53ZM466.86,83.54h32.53v-47.45h18.53v106.27h-51.06v-58.82Z"/>
        </g>
        <g>
          <path class="cls-8" d="M294.24,12.91c-55.58,0-100.8,45.22-100.8,100.8,0,.82.01,1.64.03,2.46,23.03-8.52,46.85-14.91,70.89-19l.34,1.98c4.08-17.4,19.72-30.41,38.35-30.41,16.29,0,30.3,9.93,36.29,24.06l.03-1.06c18.08.44,36.3,2.17,54.24,5.12-8.04-47.59-49.54-83.95-99.38-83.95Z"/>
          <path class="cls-9" d="M387.49,94.95c-15.54-1.28-31.64-2.16-47.18-2.12-.9,0-1.66-.55-2.02-1.32-1.82-3.56-4.18-6.83-6.96-9.66-20.81-21.79-57.71-13.09-66.74,15.61-.28,1.02-1.14,1.75-2.12,1.93-5.21.92-10.43,1.81-15.61,2.89-15.63,3.17-31.06,7.18-46.37,11.68,14.56-6.76,29.79-12.09,45.31-16.21,5.19-1.35,10.4-2.66,15.66-3.73l-2.12,1.93c11.4-39.96,65.84-44.27,83.12-6.39,0,0-2.01-1.32-2.01-1.32,15.83.95,31.61,3.07,47.04,6.73h0Z"/>
          <path class="cls-9" d="M301.59,145.02c-19.09,0-35.05-13.65-38.64-31.69-23.34,4.17-46.43,10.61-68.71,19.14,9.8,45.39,50.25,79.5,98.53,79.5,54.89,0,99.67-44.1,100.77-98.73-17.36-3.07-35.04-4.91-52.6-5.5-1.11,20.74-18.33,37.28-39.34,37.28Z"/>
          <path class="cls-6" d="M359.62,33.56c14.75,17.87,23.61,40.78,23.61,65.76,0,57.09-46.28,103.38-103.38,103.38-24.98,0-47.89-8.86-65.76-23.61,18.96,22.97,47.65,37.61,79.76,37.61,57.09,0,103.38-46.28,103.38-103.38,0-32.11-14.64-60.8-37.61-79.76Z"/>
          <circle class="cls-2" cx="293.86" cy="113.33" r="103.37"/>
          <path class="cls-4" d="M190.49,126.95c27.35-10.35,65.89-21.54,113-25,36.58-2.68,68.28.04,93,4"/>
          <circle class="cls-5" cx="302.68" cy="107.76" r="36.82"/>
          <circle class="cls-6" cx="302.68" cy="114.76" r="36.82"/>
          <circle class="cls-6" cx="302.68" cy="114.76" r="36.82"/>
          <circle class="cls-5" cx="302.68" cy="107.76" r="36.82"/>
          <circle class="cls-3" cx="302.68" cy="107.76" r="18.8"/>
        </g>
      </g>
    </g>
  </g>
</svg>