<svg width="0" height="0" class="hidden">
  <symbol fill="none" xmlns="http://www.w3.org/2000/svg" viewBox="0 0 20 20" id="normal">
    <path d="M10 16.25C6.55313 16.25 3.75 13.4469 3.75 10C3.75 6.55313 6.55313 3.75 10 3.75C13.4469 3.75 16.25 6.55313 16.25 10C16.25 13.4469 13.4469 16.25 10 16.25ZM10 6.25C7.93281 6.25 6.25 7.93281 6.25 10C6.25 12.0672 7.93281 13.75 10 13.75C12.0672 13.75 13.75 12.0672 13.75 10C13.75 7.93281 12.0672 6.25 10 6.25Z" fill="#B2B291"></path>
  </symbol>
  <symbol fill="none" xmlns="http://www.w3.org/2000/svg" viewBox="0 0 20 20" id="poison">
    <path d="M16.25 9.21874C16.25 6.34218 13.4516 4.01093 10 4.01093C6.54844 4.01093 3.75 6.34218 3.75 9.21874C3.75 10.7859 4.58281 12.1922 5.89844 13.1469C5.72656 13.4516 5.625 13.8203 5.625 14.2187C5.625 15.2547 6.30156 16.0937 7.13593 16.0937C7.78593 16.0937 8.33906 15.5828 8.55156 14.8687C8.7375 15.5781 9.31562 16.0937 9.99844 16.0937C10.6812 16.0937 11.2594 15.5766 11.4453 14.8687C11.6578 15.5828 12.2109 16.0937 12.8609 16.0937C13.6953 16.0937 14.3719 15.2547 14.3719 14.2187C14.3719 13.8203 14.2703 13.45 14.0984 13.1469C15.4172 12.1922 16.25 10.7859 16.25 9.21874ZM10 12.3953C7.7125 12.3953 5.78125 10.9406 5.78125 9.21874C5.78125 7.49686 7.7125 6.04218 10 6.04218C12.2875 6.04218 14.2188 7.49686 14.2188 9.21874C14.2188 10.9406 12.2875 12.3953 10 12.3953Z" fill="#B686B5"></path>
  </symbol>
  <symbol fill="none" xmlns="http://www.w3.org/2000/svg" viewBox="0 0 20 20" id="psychic">
    <path d="M13.2094 14.925C10.4672 16.3906 6.72814 15.7156 5.10314 12.9234C3.62033 10.375 4.42658 6.79531 6.91095 5.17968C9.37345 3.57812 13.0203 4.29375 14.7406 6.66093C16.7453 9.42187 15.2422 13.5594 11.7078 13.8875C10.2188 14.0266 8.57502 13.3375 7.86408 11.9656C7.22345 10.7312 7.53127 8.9375 8.70158 8.12187C9.8672 7.30937 11.7641 7.45781 12.3594 8.90468C12.611 9.51874 12.5156 10.3594 12.0375 10.8453C11.6344 11.2547 10.6969 11.4 10.261 10.9375C10.1 10.7656 9.93439 10.4453 10.2375 10.3234C10.3563 10.2766 10.6594 10.4844 10.8016 10.4828C11.4563 10.4734 11.6641 9.64687 11.3281 9.16093C10.9203 8.57343 10.0188 8.61718 9.50627 9.01562C8.87814 9.50312 8.80158 10.3109 9.07346 11.0141C9.59846 12.3766 11.3047 12.6844 12.4703 11.9047C13.6016 11.1484 13.7735 9.32812 13.2 8.17656C12.4125 6.59531 10.2594 6.13281 8.70158 6.69531C7.15783 7.25312 6.23908 8.77031 6.20471 10.3797C6.17346 11.8187 6.86564 13.2375 8.0297 14.0875C9.55158 15.2016 11.4375 14.925 13.2094 14.925Z" fill="#D69BAF"></path>
  </symbol>
  <symbol fill="none" xmlns="http://www.w3.org/2000/svg" viewBox="0 0 20 20" id="rock">
    <path d="M14.8438 5.3125L16.4062 10.1562L14.375 12.6562L12.9688 10.4688L14.8438 5.3125ZM11.5625 15.7812L13.75 13.2812L12.1875 11.0938L7.34375 14.375L11.5625 15.7812ZM8.125 5.3125L3.75 10L3.90625 13.2812L6.25 14.0625L12.0312 10.1562L13.75 5.3125H8.125Z" fill="#C4B682"></path>
  </symbol>
  <symbol fill="none" xmlns="http://www.w3.org/2000/svg" viewBox="0 0 20 20" id="steel">
    <path d="M13.125 10C13.125 11.7266 11.7266 13.125 10 13.125C8.27344 13.125 6.875 11.7266 6.875 10C6.875 8.27344 8.27344 6.875 10 6.875C11.7266 6.875 13.125 8.27344 13.125 10ZM13.3984 4.11407H6.60156L3.20312 10L6.60156 15.8859H13.3984L16.7969 10L13.3984 4.11407Z" fill="#B7B7C0"></path>
  </symbol>
  <symbol fill="none" xmlns="http://www.w3.org/2000/svg" viewBox="0 0 20 20" id="water">
    <path d="M14.4531 11.875C14.4531 14.3344 12.4594 16.3281 10 16.3281C7.54063 16.3281 5.54688 14.3344 5.54688 11.875C5.54688 9.41563 9.14062 3.98438 10 3.98438C10.8594 3.98438 14.4531 9.41563 14.4531 11.875ZM10.5469 13.3594C9.25313 13.3594 8.20312 12.3094 8.20312 11.0156C8.20312 10.7016 8.26562 10.4031 8.37812 10.1297C7.66094 10.6047 7.1875 11.4187 7.1875 12.3438C7.1875 13.8109 8.37656 15 9.84375 15C11.3109 15 12.5 13.8109 12.5 12.3438C12.5 12.3328 12.4984 12.3234 12.4984 12.3125C12.0781 12.9437 11.3609 13.3594 10.5469 13.3594Z" fill="#7BA9DD"></path>
  </symbol>
  <symbol fill="none" xmlns="http://www.w3.org/2000/svg" viewBox="0 0 20 20" id="bug">
    <path d="M13.9061 6.25C13.2921 7.74219 12.1077 8.14844 10.6249 8.28125C9.70301 10.9891 10.7218 13.9797 12.6561 15.9375C16.3874 14.1734 17.0718 8.90625 13.9061 6.25Z" fill="#B7C383"></path>
    <path d="M11.317 7.07969C12.0061 6.79219 12.5967 6.27344 12.9686 5.625C12.567 5.39844 12.1233 5.23594 11.6811 5.10937L12.5498 4.04687C12.7139 3.84687 12.6842 3.55156 12.4842 3.3875C12.2842 3.22344 11.9889 3.25313 11.8248 3.45313L10.6452 4.89531C10.2092 4.83906 9.79047 4.83906 9.35454 4.89531L8.17485 3.45313C8.01078 3.25313 7.71547 3.22344 7.51547 3.3875C7.31547 3.55156 7.28578 3.84687 7.44985 4.04687L8.3186 5.10937C7.87641 5.23594 7.43266 5.39844 7.0311 5.625C7.87797 7.10156 9.74828 7.73437 11.317 7.07969Z" fill="#B7C383"></path>
    <path d="M7.34361 7.8125C6.55767 7.26406 6.21705 6.54844 6.09361 6.25C5.93111 6.38594 3.68267 8.34219 4.06236 11.4062C4.44673 14.5078 7.16548 15.8531 7.34361 15.9375C9.27798 13.9797 10.2967 10.9891 9.37486 8.28125C9.05142 8.25312 8.04517 8.30313 7.34361 7.8125Z" fill="#B7C383"></path>
  </symbol>
  <symbol fill="none" xmlns="http://www.w3.org/2000/svg" viewBox="0 0 20 20" id="dark">
    <path d="M15.0234 10C15.0234 12.7187 12.8203 14.9219 10.1016 14.9219C9.54063 14.9219 9.00156 14.8266 8.49844 14.6531C10.4297 13.9875 11.8172 12.1563 11.8172 10C11.8172 7.84375 10.4297 6.0125 8.49844 5.34688C9.00156 5.17344 9.54063 5.07812 10.1016 5.07812C12.8188 5.07812 15.0234 7.28125 15.0234 10ZM10 3.75C6.54844 3.75 3.75 6.54844 3.75 10C3.75 13.4516 6.54844 16.25 10 16.25C13.4516 16.25 16.25 13.4516 16.25 10C16.25 6.54844 13.4516 3.75 10 3.75Z" fill="#9A8B80"></path>
  </symbol>
  <symbol fill="none" xmlns="http://www.w3.org/2000/svg" viewBox="0 0 20 20" id="dragon">
    <path d="M15.7641 8.98281C15.2422 6.38281 12.9953 4.40781 10.2687 4.30156C10.5047 3.69219 10.5016 2.96094 10.2344 2.26562C9.92811 2.95156 9.47968 3.57188 8.91093 4.06406C8.66874 4.27344 8.39061 4.50469 8.09374 4.62812C7.79686 4.75156 7.50311 4.86406 7.22186 5.02031C6.12186 5.62813 5.2328 6.59063 4.71561 7.73594C4.41718 8.39688 4.24374 9.11719 4.20937 9.84219C4.85468 9.64062 5.51249 9.47969 6.17811 9.3625C6.7703 9.25938 7.36874 9.21406 7.96093 9.12656C9.0578 8.96406 9.91562 8.33437 10.5187 7.4125C11.7922 7.82031 12.675 9.03594 12.6766 10.3719C12.6781 11.5625 11.9703 12.6734 10.8953 13.1812C10.2672 13.4781 9.54843 13.5516 8.87187 13.3969C9.17031 14.0703 9.64999 14.6578 10.2484 15.0875C10.5531 15.3062 10.8891 15.4828 11.2422 15.6109C11.4 15.6687 11.5828 15.75 11.7469 15.7234C11.9422 15.6906 12.15 15.5875 12.3312 15.5109C13.8234 14.875 15.0094 13.6109 15.5484 12.0813C15.8969 11.0922 15.9703 10.0094 15.7641 8.98281ZM6.37655 7.03125C6.7328 6.675 7.21874 6.52813 7.6828 6.58906C7.81092 7.59063 6.93749 8.46875 5.93436 8.3375C5.87342 7.87343 6.0203 7.3875 6.37655 7.03125ZM9.43905 15.9469C6.91717 15.6891 4.87187 13.8266 4.33749 11.3984C5.58905 10.7266 7.05936 10.3391 8.48593 10.3922C7.99999 11.1344 7.74843 12.05 7.82343 12.9375C7.90468 14.1641 8.5203 15.2437 9.43905 15.9469Z" fill="#9B8ED6"></path>
  </symbol>
  <symbol fill="none" xmlns="http://www.w3.org/2000/svg" viewBox="0 0 20 20" id="electric">
    <path d="M6.71875 4.53125H11.5625L13.5938 10.9375L10.4688 10.7812L12.3438 16.0938L4.84375 8.35938H8.4375L6.71875 4.53125Z" fill="#D6C677"></path>
  </symbol>
  <symbol fill="none" xmlns="http://www.w3.org/2000/svg" viewBox="0 0 20 20" id="fairy">
    <path d="M17.3438 10L13.4422 7.86562L13.9844 6.01719L12.1359 6.55938L10 2.65625L7.86563 6.55781L6.01719 6.01562L6.55937 7.86406L2.65625 10L6.55781 12.1344L6.01562 13.9828L7.86407 13.4406L10 17.3438L12.1344 13.4422L13.9828 13.9844L13.4406 12.1359L17.3438 10ZM11.05 11.05L10 12.9688L8.95 11.05L7.03125 10L8.95 8.95L10 7.03125L11.05 8.95L12.9688 10L11.05 11.05Z" fill="#CEA0B4"></path>
  </symbol>
  <symbol fill="none" xmlns="http://www.w3.org/2000/svg" viewBox="0 0 20 20" id="fighting">
    <path d="M3.58282 12.6781L4.36407 14.5828C4.63594 15.2469 5.625 15.0516 5.625 14.3344V8.79064C5.625 8.07346 4.63594 7.87814 4.36407 8.54221L3.58282 10.4469C3.28907 11.1625 3.28907 11.9641 3.58282 12.6781Z" fill="#D88A86"></path>
    <path d="M15.8594 14.2578V6.05469C15.8594 5.60156 15.4922 5.23438 15.0391 5.23438H14.6484C14.1953 5.23438 13.8281 5.60156 13.8281 6.05469V8.72344C13.8281 8.86719 13.7109 8.98438 13.5672 8.98438C13.4234 8.98438 13.3062 8.86719 13.3062 8.72344V6.05469C13.3062 5.60156 12.9391 5.23438 12.4859 5.23438H12.0953C11.6422 5.23438 11.275 5.60156 11.275 6.05469V8.72344C11.275 8.86719 11.1578 8.98438 11.0141 8.98438C10.8703 8.98438 10.7531 8.86719 10.7531 8.72344V6.05469C10.7531 5.60156 10.3859 5.23438 9.93281 5.23438H9.54219C9.08906 5.23438 8.72187 5.60156 8.72187 6.05469V8.72344C8.72187 8.86719 8.60468 8.98438 8.46093 8.98438C8.31718 8.98438 8.2 8.86719 8.2 8.72344V6.05469C8.2 5.60156 7.83281 5.23438 7.37968 5.23438H6.98906C6.53593 5.23438 6.16875 5.60156 6.16875 6.05469V14.2578C6.16875 14.7109 6.53593 15.0781 6.98906 15.0781H15.0359C15.4922 15.0781 15.8594 14.7109 15.8594 14.2578Z" fill="#D88A86"></path>
  </symbol>
  <symbol fill="none" xmlns="http://www.w3.org/2000/svg" viewBox="0 0 20 20" id="fire">
    <path d="M13.3844 6.65781C14.9875 7.79687 15.9203 9.90312 15.2125 11.8156C14.5469 13.6156 12.6859 14.7406 10.8109 14.7953C12.2531 14.2828 12.7266 12.4047 11.7016 11.2687C10.6938 10.1531 8.82657 10.3984 8.1375 11.7312C7.36094 13.2312 8.59062 14.7266 9.9375 15.3281C11.4641 16.0094 13.2281 15.5078 14.4531 14.4531C12.3437 17.3484 8.07344 17.8578 5.72969 14.9703C4.13594 13.0062 4.09844 10.1234 5.54688 8.04687C5.19844 9.17343 5.46875 10.3125 6.40625 10.9375C5.46875 9.0625 6.09844 7.64218 7.36563 6.38437C7.97813 5.77812 8.75782 5.54687 9.39844 5.01718C10.1031 4.43593 10.1953 3.47031 10.0594 2.62187C11.1844 3.20156 11.8891 4.4375 11.7859 5.70312C9.99062 5.71093 9.34688 8.18281 10.9125 9.06562C12.4391 9.925 14.2094 8.20937 13.3844 6.65781Z" fill="#E2997B"></path>
  </symbol>
  <symbol fill="none" xmlns="http://www.w3.org/2000/svg" viewBox="0 0 20 20" id="flying">
    <path d="M15.3141 11.8875C14.6563 12.9984 13.8344 13.4797 12.775 13.5984C12.5172 13.6266 12.2547 13.6063 11.9969 13.6375C11.8109 13.6609 11.6813 13.8609 11.8484 13.9516C12.6094 14.3672 11.9203 14.5656 11.7141 14.7313C10.1516 15.9938 7.86876 16.0797 6.17345 14.9719C4.43595 13.8375 3.62814 11.7219 4.17189 9.73126C4.71251 7.75313 6.43126 6.31251 8.46095 6.22188C9.75782 6.16407 11.0609 6.17032 12.3594 6.20626C14.0375 6.25313 15.5672 5.93438 16.7953 4.57657C17.0219 4.95313 16.9266 5.28438 16.8703 5.59063C16.4609 7.85938 14.5344 9.49219 12.2125 9.54844C11.7453 9.55938 11.2766 9.55313 10.8094 9.56094C10.65 9.56407 10.475 9.59688 10.4734 9.79532C10.4719 9.95157 10.625 9.99532 10.7594 9.98751C12.4719 9.90157 14.2656 10.3688 15.8281 9.24688C15.9422 9.16407 16.0781 9.00157 16.2266 9.16876C16.3484 9.30469 16.2594 9.46407 16.1828 9.60001C15.4859 10.8391 14.4531 11.5859 13.0203 11.7188C12.6078 11.7563 12.1891 11.7203 11.7734 11.7422C11.5328 11.7547 11.1266 11.6297 11.1141 11.9531C11.1 12.325 11.5141 12.175 11.7375 12.1719C12.8688 12.1594 14.0109 12.3156 15.3141 11.8875Z" fill="#ADA0D6"></path>
  </symbol>
  <symbol fill="none" xmlns="http://www.w3.org/2000/svg" viewBox="0 0 20 20" id="ghost">
    <path d="M15.6641 9.84375C15.6641 4.64843 9.21718 1.90625 5.47499 5.51094C1.69999 9.14844 4.29687 15.6969 9.53124 15.8562C12.2656 15.8594 13.5219 15.6266 15.4562 15.1312C14.8672 14.8906 14.3281 14.5531 13.8594 14.1391C14.9719 13.0469 15.6641 11.5266 15.6641 9.84375ZM7.22656 10.3125C6.42812 10.3125 5.78124 9.66562 5.78124 8.86718C5.78124 8.2125 6.21718 7.65937 6.81406 7.48281C6.80312 7.55312 6.79687 7.62343 6.79687 7.69531C6.79687 8.49375 7.44374 9.14062 8.24218 9.14062C8.38593 9.14062 8.52343 9.11875 8.65468 9.07968C8.55156 9.77656 7.95156 10.3125 7.22656 10.3125ZM12.0531 10.3125C11.3281 10.3125 10.7281 9.77656 10.625 9.07968C10.7562 9.11875 10.8937 9.14062 11.0375 9.14062C11.8359 9.14062 12.4828 8.49375 12.4828 7.69531C12.4828 7.62343 12.475 7.55156 12.4656 7.48281C13.0625 7.66093 13.4984 8.2125 13.4984 8.86718C13.4984 9.66562 12.8516 10.3125 12.0531 10.3125Z" fill="#9D8FB7"></path>
  </symbol>
  <symbol fill="none" xmlns="http://www.w3.org/2000/svg" viewBox="0 0 20 20" id="grass">
    <path d="M15.5875 4.12031C15.1641 3.74843 13.4719 4.15624 12.9906 4.21562C11.4031 4.40937 9.80626 4.71562 8.29533 5.25C6.72658 5.80468 5.44376 6.60312 4.70782 8.15624C3.78282 10.1062 4.0547 12.4828 5.39376 14.175C5.73595 13.8109 6.22657 13.4437 6.49689 13.025C6.85782 12.4672 6.66094 11.3531 6.68751 10.6531C6.69532 10.4453 6.77188 7.59062 6.91094 7.58125C7.07969 7.57031 7.51408 10.3719 7.67033 11.4156C7.69376 11.5687 7.8797 11.6297 7.99064 11.5203C8.36251 11.1531 8.73595 10.7875 9.11095 10.4234C9.3672 10.175 9.49376 10.0781 9.56407 9.75468C9.63595 9.42031 9.58126 8.99218 9.60314 8.65C9.61564 8.44687 9.76251 5.87343 9.94533 5.8625C10.1156 5.85156 10.5156 7.86718 10.6594 8.62187C10.6813 8.73906 10.825 8.78437 10.9109 8.70156C11.6703 7.96562 14.0297 5.66406 14.1469 5.76718C14.2656 5.87031 12.2938 8.5125 11.6641 9.36093C11.5922 9.45625 11.6563 9.59218 11.775 9.6C12.5422 9.64375 14.5922 9.77499 14.6031 9.94531C14.6156 10.1266 12.0688 10.6141 11.8844 10.65C11.5656 10.7125 11.225 10.7344 10.9109 10.8172C10.5125 10.9219 10.45 11.0203 10.1906 11.3687C9.87813 11.7891 9.56563 12.2078 9.24845 12.625C9.1547 12.7484 9.24063 12.925 9.39532 12.9281C10.4516 12.9453 13.2859 13.0078 13.2969 13.1781C13.3063 13.3172 10.4844 13.7687 10.2813 13.8031C9.63594 13.9141 8.54532 13.8687 8.02814 14.2109C7.63126 14.4734 7.26251 15.1766 6.95938 15.5484C8.75157 16.6187 11.0531 16.6156 12.8438 15.5453C14.3422 14.6484 15.0281 13.2891 15.3953 11.6375C15.7485 10.05 15.8469 8.39687 15.8344 6.77343C15.8297 6.17968 15.8125 5.58437 15.7531 4.99375C15.7344 4.79531 15.7547 4.26718 15.5875 4.12031Z" fill="#98BC81"></path>
  </symbol>
  <symbol fill="none" xmlns="http://www.w3.org/2000/svg" viewBox="0 0 20 20" id="ground">
    <path d="M13.9062 5H9.21875L6.09375 13.75H17.0312L13.9062 5Z" fill="#CEB87E"></path>
    <path d="M7.5 6.71875H5L2.5 13.75H5L7.5 6.71875Z" fill="#CEB87E"></path>
  </symbol>
  <symbol fill="none" xmlns="http://www.w3.org/2000/svg" viewBox="0 0 20 20" id="ice">
    <path d="M9.39531 10.0406L5.94375 11.9828L2.61719 9.99218L5.90469 8.09374L9.39531 10.0406ZM14.0547 8.01562L10.6031 9.95781L14.0922 11.9031L17.3797 10.0047L14.0547 8.01562ZM9.60156 5.50156L6.31406 3.60312L6.25469 7.47968L9.6625 9.49687L9.60156 5.50156ZM13.7453 12.5203L10.3375 10.5031L10.3969 14.4984L13.6844 16.3969L13.7453 12.5203ZM13.6969 7.40624V3.60937L10.3109 5.49531L10.2672 9.45468L13.6969 7.40624ZM9.69062 14.5031L9.73437 10.5437L6.30469 12.5937V16.3906L9.69062 14.5031Z" fill="#96C5C3"></path>
  </symbol>
</svg>