<svg width="280" height="64" viewBox="0 0 280 64" fill="none" xmlns="http://www.w3.org/2000/svg">
<path d="M49.5398 59.7863H14.2195C8.56983 59.7863 3.97302 55.1895 3.97302 49.5398V14.2195C3.97302 8.56983 8.56983 3.97302 14.2195 3.97302H49.5438C55.1934 3.97302 59.7903 8.56983 59.7903 14.2195V49.5438C59.7903 55.1934 55.1934 59.7903 49.5438 59.7903L49.5398 59.7863ZM14.2195 8.34337C10.9815 8.34337 8.34337 10.9775 8.34337 14.2195V49.5438C8.34337 52.7818 10.9775 55.4199 14.2195 55.4199H49.5438C52.7818 55.4199 55.4199 52.7858 55.4199 49.5438V14.2195C55.4199 10.9815 52.7858 8.34337 49.5438 8.34337H14.2195Z" fill="white"/>
<path d="M57.4223 29.4442L56.6396 25.1453L43.7789 27.4894C42.885 25.054 41.2719 22.9522 39.0947 21.4464C33.3417 17.4655 25.4234 18.9077 21.4425 24.6606C19.9009 26.8895 19.1778 29.4442 19.1977 31.9671L6.18201 34.339L6.9647 38.6378L19.9804 36.2659C20.8505 38.6338 22.4278 40.7673 24.6566 42.3089C26.8537 43.8306 29.3647 44.5576 31.8558 44.5576C35.8845 44.5576 39.8496 42.6466 42.3089 39.0947C43.8146 36.9175 44.5854 34.3827 44.5616 31.7883L57.4223 29.4442ZM38.7172 36.6115C36.1069 40.382 30.9182 41.3275 27.1477 38.7212C23.3773 36.1109 22.4317 30.9221 25.0381 27.1517C26.6511 24.8196 29.2495 23.568 31.8876 23.568C33.5205 23.568 35.1653 24.0448 36.6076 25.042C38.4351 26.3055 39.6588 28.2046 40.0561 30.3898C40.4535 32.5749 39.9767 34.7839 38.7133 36.6115H38.7172Z" fill="white"/>
<path d="M31.8796 37.7359C35.114 37.7359 37.7359 35.114 37.7359 31.8796C37.7359 28.6453 35.114 26.0234 31.8796 26.0234C28.6453 26.0234 26.0234 28.6453 26.0234 31.8796C26.0234 35.114 28.6453 37.7359 31.8796 37.7359Z" fill="#F6C657"/>
<path d="M100.76 20.6459C99.7749 20.1016 98.6228 19.7242 97.3037 19.5136C95.9847 19.303 94.5703 19.1957 93.0605 19.1957H72.1067V38.5166H79.6555V33.5344H93.0605C94.5703 33.5344 95.9847 33.4629 97.3037 33.3239C98.6228 33.1848 99.7749 32.8908 100.76 32.4498C101.746 32.0088 102.52 31.3334 103.084 30.4275C103.649 29.5217 103.931 28.294 103.931 26.7445C103.931 25.195 103.649 23.9276 103.084 22.9383C102.52 21.953 101.746 21.1862 100.76 20.6419V20.6459ZM95.7661 27.9682C95.3529 28.1589 94.8444 28.2543 94.2405 28.2543H79.6594V25.2348H94.2405C94.8444 25.2348 95.3529 25.3261 95.7661 25.5049C96.1793 25.6877 96.3859 26.1009 96.3859 26.7445C96.3859 27.3881 96.1793 27.7775 95.7661 27.9682Z" fill="white"/>
<path d="M127.106 24.0706C125.004 23.5383 122.362 23.2721 119.179 23.2721C115.997 23.2721 113.315 23.5383 111.193 24.0706C109.068 24.603 107.479 25.4493 106.422 26.6054C105.365 27.7616 104.837 29.2753 104.837 31.1506C104.837 33.0259 105.365 34.5317 106.422 35.6799C107.479 36.8281 109.068 37.6624 111.193 38.1869C113.315 38.7113 115.977 38.9735 119.179 38.9735C122.382 38.9735 125 38.7113 127.106 38.1869C129.207 37.6624 130.785 36.8281 131.829 35.6799C132.874 34.5317 133.399 33.0219 133.399 31.1506C133.399 29.2793 132.874 27.7656 131.829 26.6054C130.785 25.4493 129.207 24.603 127.106 24.0706ZM125.218 33.0696C124.694 33.5821 123.931 33.9635 122.922 34.2178C121.917 34.4681 120.669 34.5952 119.179 34.5952C117.689 34.5952 116.398 34.4681 115.361 34.2178C114.324 33.9675 113.546 33.5821 113.021 33.0696C112.497 32.5571 112.234 31.9174 112.234 31.1506C112.234 30.3838 112.501 29.7163 113.033 29.2038C113.565 28.6913 114.352 28.3019 115.389 28.0397C116.426 27.7775 117.689 27.6464 119.179 27.6464C120.669 27.6464 121.945 27.7775 122.954 28.0397C123.959 28.3019 124.722 28.6953 125.234 29.2157C125.747 29.7362 126.005 30.3838 126.005 31.1466C126.005 31.9095 125.743 32.5491 125.218 33.0656V33.0696Z" fill="white"/>
<path d="M159.907 23.725H150.304L141.671 30.0938L151.754 38.5206H160.932L150.638 30.1613L159.907 23.725Z" fill="white"/>
<path d="M141.551 17.686H134.305V38.5166H141.551V17.686Z" fill="white"/>
<path d="M186.9 26.7286C185.974 25.5129 184.536 24.6308 182.581 24.0865C180.626 23.5422 178.123 23.2721 175.064 23.2721C172.005 23.2721 169.287 23.5224 167.094 24.0269C164.901 24.5315 163.224 25.3619 162.068 26.518C160.912 27.6742 160.332 29.2197 160.332 31.1546C160.332 33.0894 160.924 34.6548 162.112 35.803C163.3 36.9512 164.996 37.7657 167.197 38.2504C169.402 38.7351 172.025 38.9735 175.064 38.9735C177.941 38.9735 180.312 38.7351 182.176 38.2623C184.039 37.7896 185.458 37.1221 186.431 36.256C187.408 35.3898 187.984 34.3727 188.167 33.2047H181.043C180.821 33.6496 180.154 33.9913 179.037 34.2297C177.921 34.4721 176.494 34.5913 174.766 34.5913C173.038 34.5913 171.762 34.4562 170.765 34.182C169.768 33.9119 169.033 33.5543 168.56 33.1093C168.087 32.6683 167.801 32.1836 167.698 31.6592H188.231C188.27 29.5852 187.825 27.9404 186.904 26.7246L186.9 26.7286ZM167.909 29.7322C168.111 29.2674 168.771 28.8065 169.887 28.3417C171.004 27.8768 172.629 27.6464 174.762 27.6464C176.896 27.6464 178.517 27.8609 179.502 28.294C180.487 28.727 181.051 29.2038 181.194 29.7283H167.909V29.7322Z" fill="white"/>
<path d="M186.383 15.8147H176.725L170.626 20.344H177.901L186.383 15.8147Z" fill="white"/>
<path d="M210.96 28.3337C210.897 28.1947 210.825 28.0556 210.75 27.9205C210.206 26.9551 209.423 26.1247 208.394 25.4294C207.365 24.7342 206.129 24.2018 204.679 23.8283C203.229 23.4548 201.6 23.2681 199.788 23.2681C197.615 23.2681 195.684 23.5621 193.992 24.1422C192.299 24.7262 190.968 25.6003 189.991 26.7683C189.013 27.9364 188.525 29.3866 188.525 31.1149C188.525 32.8431 189.013 34.1741 189.991 35.3422C190.968 36.5102 192.299 37.4002 193.992 38.016C195.684 38.6318 197.615 38.9378 199.788 38.9378C201.6 38.9378 203.229 38.751 204.679 38.3776C206.129 38.0041 207.365 37.4717 208.394 36.7764C209.419 36.0812 210.206 35.2587 210.75 34.3012C210.833 34.1582 210.905 34.0112 210.976 33.8602C210.996 34.7224 211.04 35.5249 211.111 36.2639C211.211 37.3009 211.302 38.0518 211.386 38.5127H218.207V17.682H210.96V28.3298V28.3337ZM209.796 33.0855C209.022 33.5503 207.993 33.8761 206.717 34.0668C205.438 34.2575 204.035 34.3529 202.506 34.3529C201.135 34.3529 199.971 34.2337 199.002 33.9913C198.036 33.749 197.301 33.3874 196.797 32.9027C196.292 32.418 196.042 31.826 196.042 31.1228C196.042 30.0342 196.606 29.2277 197.73 28.6913C198.859 28.1589 200.448 27.8927 202.502 27.8927C204.031 27.8927 205.434 27.9841 206.713 28.1629C207.993 28.3417 209.018 28.6675 209.792 29.1283C210.567 29.5932 210.956 30.2567 210.956 31.1228C210.956 31.9889 210.567 32.6206 209.792 33.0855H209.796Z" fill="white"/>
<path d="M247.703 33.2047H240.579C240.357 33.6496 239.69 33.9913 238.573 34.2297C237.457 34.4721 236.03 34.5913 234.302 34.5913C232.574 34.5913 231.298 34.4562 230.301 34.182C229.304 33.9119 228.569 33.5543 228.096 33.1093C227.623 32.6683 227.337 32.1836 227.234 31.6592H247.767C247.806 29.5852 247.361 27.9404 246.44 26.7246C245.514 25.5089 244.076 24.6269 242.121 24.0826C240.166 23.5383 237.663 23.2681 234.604 23.2681C231.545 23.2681 228.827 23.5184 226.634 24.023C224.441 24.5275 222.764 25.3579 221.608 26.5141C220.452 27.6702 219.872 29.2157 219.872 31.1506C219.872 33.0855 220.464 34.6509 221.652 35.7991C222.84 36.9473 224.536 37.7617 226.737 38.2465C228.942 38.7312 231.565 38.9695 234.604 38.9695C237.481 38.9695 239.852 38.7312 241.716 38.2584C243.579 37.7856 244.998 37.1181 245.971 36.252C246.948 35.3859 247.524 34.3688 247.707 33.2007L247.703 33.2047ZM229.423 28.3456C230.54 27.8808 232.165 27.6504 234.298 27.6504C236.432 27.6504 238.053 27.8649 239.038 28.298C240.023 28.731 240.587 29.2078 240.73 29.7322H227.445C227.647 29.2674 228.307 28.8065 229.423 28.3417V28.3456Z" fill="white"/>
<path d="M275.085 38.5206L264.668 30.793L274.481 23.725H265.606L260.52 27.7497L254.978 23.725H246.102L256.094 31.1387L246.102 38.5206H254.978L260.25 34.19L266.21 38.5206H275.085Z" fill="white"/>
<path d="M76.9379 43.3717C76.7591 43.2366 76.5525 43.1373 76.3141 43.0697C76.0758 43.0022 75.8215 42.9704 75.5473 42.9704H72.5239V47.8453H73.5251V46.264H75.5434C75.8135 46.264 76.0718 46.2362 76.3102 46.1766C76.5486 46.117 76.7552 46.0257 76.9339 45.8985C77.1127 45.7714 77.2518 45.6045 77.3511 45.3979C77.4504 45.1913 77.5021 44.945 77.5021 44.651C77.5021 44.357 77.4504 44.1027 77.3511 43.8882C77.2518 43.6736 77.1127 43.5028 76.9339 43.3677L76.9379 43.3717ZM76.2704 45.2549C76.1155 45.3979 75.9049 45.4694 75.6387 45.4694H73.529V43.8325H75.6387C75.9049 43.8325 76.1155 43.9041 76.2704 44.0431C76.4254 44.1822 76.5049 44.3888 76.5049 44.655C76.5049 44.9212 76.4254 45.1119 76.2704 45.2549Z" fill="white"/>
<path d="M89.6477 43.181C89.1908 42.9784 88.6346 42.8751 87.983 42.8751C87.3314 42.8751 86.7792 42.9784 86.3223 43.181C85.8614 43.3836 85.5118 43.6736 85.2654 44.0511C85.0191 44.4285 84.8999 44.8814 84.8999 45.4138C84.8999 45.9462 85.0231 46.3952 85.2654 46.7726C85.5078 47.1501 85.8614 47.4401 86.3223 47.6427C86.7831 47.8453 87.3354 47.9486 87.983 47.9486C88.6306 47.9486 89.1908 47.8453 89.6477 47.6427C90.1046 47.4401 90.4542 47.1501 90.7005 46.7726C90.9429 46.3952 91.0661 45.9422 91.0661 45.4138C91.0661 44.8854 90.9429 44.4285 90.7005 44.0511C90.4582 43.6736 90.1046 43.3836 89.6477 43.181ZM89.755 46.3515C89.5801 46.5978 89.3418 46.7806 89.0398 46.8997C88.7379 47.0189 88.3843 47.0825 87.979 47.0825C87.5738 47.0825 87.2281 47.0229 86.9182 46.8997C86.6083 46.7806 86.362 46.5938 86.1872 46.3515C86.0124 46.1051 85.9249 45.7952 85.9249 45.4178C85.9249 45.0404 86.0124 44.7305 86.1872 44.4841C86.362 44.2378 86.6083 44.0551 86.9182 43.9319C87.2281 43.8087 87.5817 43.7491 87.979 43.7491C88.3763 43.7491 88.7339 43.8087 89.0398 43.9319C89.3457 44.0551 89.5841 44.2418 89.755 44.4841C89.9298 44.7305 90.0172 45.0404 90.0172 45.4178C90.0172 45.7952 89.9298 46.1051 89.755 46.3515Z" fill="white"/>
<path d="M103.692 42.9744H102.27L99.6756 45.2787V42.9744H98.6744V47.8493H99.6756V45.2946L102.592 47.8493H104.038L101.007 45.2668L103.692 42.9744Z" fill="white"/>
<path d="M112.441 45.8151H115.516V45.0245H112.441V43.8087H116.196V42.9744H111.44V47.8493H116.203V47.0149H112.441V45.8151Z" fill="white"/>
<path d="M127.419 46.9792L124.869 42.9744H123.867V47.8493H124.869V44.7622L126.867 47.8493H127.988L129.986 44.7503V47.8493H130.987V42.9744H129.986L127.419 46.9792Z" fill="white"/>
<path d="M143.347 43.181C142.89 42.9784 142.334 42.8751 141.683 42.8751C141.031 42.8751 140.479 42.9784 140.022 43.181C139.561 43.3836 139.211 43.6736 138.965 44.0511C138.719 44.4285 138.599 44.8814 138.599 45.4138C138.599 45.9462 138.723 46.3952 138.965 46.7726C139.207 47.1501 139.561 47.4401 140.022 47.6427C140.483 47.8453 141.035 47.9486 141.683 47.9486C142.33 47.9486 142.89 47.8453 143.347 47.6427C143.804 47.4401 144.154 47.1501 144.396 46.7726C144.639 46.3952 144.762 45.9422 144.762 45.4138C144.762 44.8854 144.639 44.4285 144.396 44.0511C144.154 43.6736 143.804 43.3836 143.347 43.181ZM143.455 46.3515C143.28 46.5978 143.041 46.7806 142.739 46.8997C142.433 47.0189 142.084 47.0825 141.679 47.0825C141.273 47.0825 140.928 47.0229 140.618 46.8997C140.308 46.7806 140.062 46.5938 139.887 46.3515C139.712 46.1051 139.625 45.7952 139.625 45.4178C139.625 45.0404 139.712 44.7305 139.887 44.4841C140.062 44.2378 140.308 44.0551 140.618 43.9319C140.928 43.8087 141.281 43.7491 141.679 43.7491C142.076 43.7491 142.433 43.8087 142.739 43.9319C143.045 44.0551 143.284 44.2418 143.455 44.4841C143.629 44.7305 143.717 45.0404 143.717 45.4178C143.717 45.7952 143.629 46.1051 143.455 46.3515Z" fill="white"/>
<path d="M157.003 46.5422L153.379 42.9744H152.374V47.8493H153.379V44.3093L157.003 47.8493H158.004V42.9744H157.003V46.5422Z" fill="white"/>
<path d="M183.693 45.8151H186.769V45.0245H183.693V43.8087H187.448V42.9744H182.692V47.8493H187.456V47.0149H183.693V45.8151Z" fill="white"/>
<path d="M200.098 42.9744H198.878L197.488 44.6828L196.129 42.9744H194.909L196.912 45.3741L194.834 47.8493H196.054L197.472 46.0654L198.851 47.8493H200.122L198.048 45.3701L200.098 42.9744Z" fill="white"/>
<path d="M212.025 43.3717C211.846 43.2366 211.64 43.1373 211.401 43.0697C211.163 43.0062 210.909 42.9704 210.635 42.9704H207.611V47.8453H208.612V46.264H210.631C210.901 46.264 211.155 46.2362 211.398 46.1766C211.636 46.117 211.842 46.0257 212.021 45.8985C212.2 45.7714 212.339 45.6045 212.438 45.3979C212.538 45.1913 212.589 44.945 212.589 44.651C212.589 44.357 212.538 44.1027 212.438 43.8882C212.339 43.6776 212.196 43.5028 212.021 43.3677L212.025 43.3717ZM211.358 45.2549C211.203 45.3979 210.992 45.4694 210.726 45.4694H208.616V43.8325H210.726C210.992 43.8325 211.203 43.9041 211.358 44.0431C211.513 44.1822 211.592 44.3888 211.592 44.655C211.592 44.9212 211.513 45.1119 211.358 45.2549Z" fill="white"/>
<path d="M221.171 42.9744H220.17V47.8493H224.409V47.0149H221.171V42.9744Z" fill="white"/>
<path d="M236.543 43.181C236.086 42.9784 235.53 42.8751 234.878 42.8751C234.227 42.8751 233.674 42.9784 233.217 43.181C232.757 43.3836 232.407 43.6736 232.161 44.0511C231.914 44.4285 231.795 44.8814 231.795 45.4138C231.795 45.9462 231.918 46.3952 232.161 46.7726C232.403 47.1501 232.757 47.4401 233.217 47.6427C233.678 47.8453 234.231 47.9486 234.878 47.9486C235.526 47.9486 236.086 47.8453 236.543 47.6427C237 47.4401 237.349 47.1501 237.592 46.7726C237.834 46.3952 237.957 45.9422 237.957 45.4138C237.957 44.8854 237.834 44.4285 237.592 44.0511C237.349 43.6736 237 43.3836 236.543 43.181ZM236.654 46.3515C236.479 46.5978 236.241 46.7806 235.939 46.8997C235.633 47.0189 235.283 47.0825 234.878 47.0825C234.473 47.0825 234.127 47.0229 233.817 46.8997C233.507 46.7806 233.261 46.5938 233.086 46.3515C232.912 46.1091 232.824 45.7952 232.824 45.4178C232.824 45.0404 232.912 44.7305 233.086 44.4841C233.261 44.2378 233.507 44.0551 233.817 43.9319C234.127 43.8087 234.485 43.7491 234.878 43.7491C235.272 43.7491 235.633 43.8087 235.939 43.9319C236.245 44.0551 236.483 44.2418 236.654 44.4841C236.829 44.7305 236.916 45.0404 236.916 45.4178C236.916 45.7952 236.829 46.1051 236.654 46.3515Z" fill="white"/>
<path d="M250.294 45.4297C250.437 45.3304 250.548 45.1993 250.627 45.0364C250.707 44.8774 250.747 44.6788 250.747 44.4484C250.747 44.1067 250.667 43.8286 250.512 43.6101C250.357 43.3915 250.139 43.2286 249.861 43.1293C249.582 43.026 249.253 42.9744 248.875 42.9744H245.566V47.8493H246.567V46.0495H248.458C248.776 46.0495 249.018 46.0694 249.185 46.1091C249.352 46.1488 249.471 46.2203 249.535 46.3236C249.598 46.4269 249.634 46.57 249.634 46.7567V47.8493H250.635V46.6892C250.635 46.419 250.58 46.2124 250.464 46.0733C250.353 45.9343 250.182 45.8389 249.956 45.7873C249.829 45.7595 249.678 45.7356 249.511 45.7237C249.606 45.7078 249.698 45.6879 249.789 45.6601C249.976 45.6085 250.139 45.529 250.282 45.4297H250.294ZM249.523 45.0602C249.376 45.1953 249.161 45.2628 248.879 45.2628H246.575V43.8325H248.879C249.161 43.8325 249.376 43.8921 249.523 44.0074C249.67 44.1226 249.745 44.2894 249.745 44.5119C249.745 44.7344 249.67 44.9251 249.523 45.0602Z" fill="white"/>
<path d="M259.432 45.8151H262.503V45.0245H259.432V43.8087H263.182V42.9744H258.426V47.8493H263.19V47.0149H259.432V45.8151Z" fill="white"/>
<path d="M275.248 45.7873C275.121 45.7595 274.97 45.7356 274.803 45.7237C274.899 45.7078 274.99 45.6879 275.081 45.6601C275.268 45.6085 275.431 45.529 275.574 45.4297C275.717 45.3304 275.828 45.1993 275.908 45.0364C275.987 44.8774 276.027 44.6788 276.027 44.4484C276.027 44.1067 275.948 43.8286 275.793 43.6101C275.638 43.3915 275.419 43.2286 275.141 43.1293C274.863 43.026 274.533 42.9744 274.16 42.9744H270.85V47.8493H271.851V46.0495H273.742C274.06 46.0495 274.303 46.0694 274.47 46.1091C274.636 46.1488 274.756 46.2203 274.819 46.3236C274.887 46.4269 274.918 46.57 274.918 46.7567V47.8493H275.92V46.6892C275.92 46.419 275.864 46.2124 275.749 46.0733C275.634 45.9343 275.467 45.8389 275.24 45.7873H275.248ZM271.855 45.2628V43.8325H274.16C274.442 43.8325 274.656 43.8921 274.803 44.0074C274.95 44.1226 275.026 44.2894 275.026 44.5119C275.026 44.7344 274.95 44.9251 274.803 45.0602C274.656 45.1953 274.442 45.2628 274.16 45.2628H271.855Z" fill="white"/>
</svg>
