<svg width="207" height="90" viewBox="0 0 207 90" fill="none" xmlns="http://www.w3.org/2000/svg">
<path d="M90.0804 1.56026C90.3128 1.09028 90.6724 0.694922 91.1183 0.419116C91.5642 0.143309 92.0786 -0.00188989 92.6029 1.85738e-05C93.0395 -0.00109267 93.4702 0.101367 93.8595 0.298986C94.1918 0.46285 94.4883 0.690966 94.7318 0.97014C94.9754 1.24931 95.1612 1.57401 95.2785 1.92544C95.3958 2.27688 95.4422 2.64808 95.4152 3.01757C95.3881 3.38707 95.288 3.74754 95.1208 4.07812L58.2637 77.9091C57.9298 78.5781 57.3438 79.0871 56.6346 79.3241C55.9255 79.561 55.1512 79.5066 54.4822 79.1727C53.8132 78.8388 53.3042 78.2528 53.0672 77.5437C52.8303 76.8345 52.8847 76.0602 53.2186 75.3912L69.8814 42.0143L66.574 35.5818L56.6847 54.8185C54.4518 59.1442 50.4251 61.7275 45.9406 61.7275C41.4561 61.7275 37.3733 59.1395 35.1497 54.8138L25.2278 35.5631L13.6801 57.8829C13.0709 59.0633 12.1483 60.053 11.0136 60.7436C9.87895 61.4341 8.57597 61.7988 7.24767 61.7975C6.00277 61.7971 4.77894 61.4762 3.69406 60.8656C2.60918 60.255 1.69981 59.3754 1.05352 58.3114C0.407237 57.2474 0.0458181 56.0349 0.00407717 54.7907C-0.0376638 53.5465 0.241679 52.3125 0.815201 51.2076L14.4836 24.8003C16.6978 20.4886 20.7246 17.91 25.2278 17.91C29.731 17.91 33.7717 20.4886 35.9719 24.819L45.9173 44.051L55.8065 24.819C58.0348 20.4886 62.0615 17.91 66.5507 17.91C71.0399 17.91 75.0946 20.4886 77.3182 24.819L77.8881 25.9308L90.0804 1.56026Z" fill="url(#paint0_linear_7_7)"/>
<path d="M107.911 17.9101C112.423 17.9101 116.431 20.4933 118.655 24.819L128.554 44.051L138.443 24.819C140.676 20.4887 144.693 17.9101 149.21 17.9101C153.728 17.9101 157.745 20.4887 159.955 24.819L169.867 44.051L179.761 24.819C180.185 23.9533 180.778 23.1808 181.504 22.5468C182.23 21.9127 183.075 21.4299 183.99 21.1264C184.905 20.823 185.871 20.705 186.832 20.7795C187.793 20.8539 188.73 21.1193 189.587 21.5601C190.445 22.0008 191.205 22.6081 191.825 23.3464C192.445 24.0847 192.911 24.9392 193.197 25.8599C193.482 26.7806 193.581 27.749 193.488 28.7085C193.395 29.6679 193.112 30.5991 192.654 31.4477L180.63 54.8045C178.411 59.1302 174.384 61.7135 169.886 61.7135C165.387 61.7135 161.347 59.1302 159.142 54.8045L149.21 35.5772L139.312 54.8139C137.093 59.1395 133.066 61.7228 128.568 61.7228C124.055 61.7228 120.028 59.1395 117.824 54.8139L107.911 35.5772L98.0216 54.8139C95.7887 59.1395 91.762 61.7228 87.2775 61.7228C85.0633 61.7277 82.8954 61.09 81.0365 59.887C79.0894 58.6449 77.523 56.8894 76.51 54.8139C76.4478 54.6891 76.4205 54.5498 76.4312 54.4107C76.4419 54.2717 76.4901 54.1382 76.5707 54.0244L83.9655 39.2115C84.0055 39.1373 84.0649 39.0754 84.1372 39.0322C84.2096 38.989 84.2923 38.9662 84.3766 38.9662C84.4608 38.9662 84.5435 38.989 84.6159 39.0322C84.6883 39.0754 84.7476 39.1373 84.7876 39.2115L87.2775 44.0557L97.1668 24.8237C99.3997 20.4933 103.422 17.9147 107.934 17.9147L107.911 17.9101ZM189.324 52.8893C189.324 54.6391 189.843 56.3495 190.816 57.8039C191.789 59.2582 193.172 60.391 194.789 61.0587C196.407 61.7264 198.186 61.8989 199.902 61.5545C201.617 61.21 203.192 60.3641 204.426 59.1238C205.661 57.8836 206.499 56.3048 206.835 54.5876C207.171 52.8704 206.99 51.092 206.315 49.4778C205.64 47.8636 204.5 46.4861 203.041 45.5201C201.582 44.554 199.869 44.0427 198.12 44.051C195.776 44.051 193.529 44.9816 191.872 46.638C190.214 48.2945 189.283 50.5414 189.281 52.8846" fill="white"/>
<path d="M79.5931 78.7172H77.2574V71.939H79.6212C80.0444 71.9276 80.4656 72.0016 80.8597 72.1565C81.2538 72.3114 81.6126 72.544 81.9148 72.8406C82.234 73.1696 82.4818 73.561 82.6426 73.9903C82.8033 74.4195 82.8736 74.8774 82.8491 75.3351C82.8751 75.7909 82.8054 76.2471 82.6445 76.6743C82.4836 77.1015 82.235 77.4903 81.9148 77.8156C81.607 78.1124 81.2431 78.3449 80.8446 78.4997C80.446 78.6545 80.0206 78.7284 79.5931 78.7172ZM78.1917 77.8857H79.5931C79.8984 77.8945 80.2023 77.8406 80.4859 77.7273C80.7695 77.614 81.0269 77.4438 81.2421 77.227C81.4697 76.9746 81.6448 76.6794 81.7571 76.3585C81.8693 76.0377 81.9166 75.6978 81.8961 75.3585C81.9409 74.6659 81.709 73.9838 81.2515 73.4619C81.0406 73.2414 80.7855 73.068 80.503 72.9529C80.2204 72.8377 79.9167 72.7836 79.6118 72.7939H78.2104L78.1917 77.8857Z" fill="white"/>
<path d="M93.9623 78.7172H89.8468V71.939H93.9623V72.8079H90.7811V74.8867H93.668V75.7649H90.7811V77.839H93.9623V78.7172Z" fill="white"/>
<path d="M105.435 73.4853L104.599 73.7796C104.544 73.4757 104.394 73.1974 104.169 72.9855C104.035 72.8609 103.876 72.7648 103.704 72.703C103.531 72.6412 103.348 72.6149 103.165 72.6258C102.825 72.6162 102.492 72.7308 102.231 72.9481C102.113 73.0459 102.018 73.1687 101.953 73.3077C101.888 73.4467 101.856 73.5983 101.857 73.7516C101.851 73.9823 101.931 74.2069 102.081 74.3822C102.252 74.5667 102.478 74.6911 102.726 74.7372L103.739 74.9568C104.234 75.0388 104.69 75.2779 105.038 75.6388C105.345 75.9679 105.513 76.4033 105.505 76.8534C105.503 77.1197 105.444 77.3826 105.332 77.6243C105.22 77.866 105.058 78.081 104.856 78.2548C104.388 78.6591 103.783 78.8697 103.165 78.8434C102.517 78.8818 101.88 78.6693 101.385 78.2501C100.975 77.8876 100.708 77.3906 100.633 76.8487L101.53 76.5637C101.56 76.952 101.725 77.3175 101.997 77.5961C102.149 77.7397 102.329 77.8507 102.526 77.9222C102.723 77.9937 102.932 78.0242 103.141 78.0119C103.511 78.0367 103.877 77.929 104.174 77.7082C104.288 77.6154 104.38 77.4978 104.442 77.3643C104.505 77.2308 104.536 77.0848 104.534 76.9374C104.539 76.6911 104.446 76.4527 104.277 76.2741C104.073 76.0684 103.81 75.9326 103.525 75.8864L102.558 75.6762C102.101 75.5917 101.682 75.3682 101.357 75.0362C101.047 74.709 100.879 74.2723 100.89 73.8216C100.893 73.5549 100.952 73.2918 101.065 73.0501C101.178 72.8084 101.341 72.5936 101.544 72.4202C101.97 72.0181 102.537 71.8 103.123 71.813C103.698 71.7744 104.267 71.9546 104.716 72.3175C105.074 72.6204 105.326 73.0294 105.435 73.4853Z" fill="white"/>
<path d="M113.465 78.7172H112.531V71.939H113.465V78.7172Z" fill="white"/>
<path d="M126.774 78.7172H126.017L125.933 77.783C125.74 78.1124 125.458 78.381 125.12 78.5584C124.705 78.7833 124.238 78.8945 123.766 78.8807C123.207 78.8856 122.656 78.7507 122.163 78.4883C121.654 78.2027 121.235 77.7804 120.953 77.2691C120.631 76.6816 120.47 76.0192 120.486 75.3492C120.47 74.6772 120.642 74.014 120.981 73.4339C121.276 72.9205 121.708 72.4998 122.229 72.2194C122.724 71.959 123.276 71.8243 123.836 71.827C124.511 71.8111 125.174 72.0071 125.732 72.3875C126.258 72.7409 126.647 73.2634 126.835 73.8684L125.984 74.2327C125.854 73.7749 125.575 73.3737 125.19 73.0929C124.793 72.8172 124.319 72.6749 123.836 72.6865C123.522 72.6834 123.211 72.7435 122.922 72.8631C122.632 72.9826 122.369 73.1593 122.149 73.3825C121.903 73.6449 121.714 73.9545 121.592 74.2927C121.469 74.6308 121.418 74.9903 121.439 75.3492C121.417 75.7091 121.467 76.0699 121.586 76.4101C121.706 76.7503 121.893 77.063 122.135 77.3298C122.35 77.5513 122.608 77.7261 122.893 77.8434C123.179 77.9608 123.485 78.0181 123.794 78.0119C124.113 78.0158 124.43 77.9587 124.728 77.8437C124.98 77.7443 125.203 77.5838 125.377 77.3766C125.524 77.2055 125.643 77.0134 125.732 76.8067C125.809 76.6238 125.856 76.4298 125.872 76.2321H123.537V75.3959H126.774V78.7172Z" fill="white"/>
<path d="M139.508 78.7172H138.536L134.879 73.2003V78.7172H133.944V71.939H135.192L138.574 77.1336V71.939H139.508V78.7172Z" fill="white"/>
<path d="M159.212 78.7172L158.362 77.8203C158.136 78.1155 157.85 78.3585 157.521 78.5327C157.193 78.7068 156.831 78.808 156.46 78.8293C156.2 78.843 155.939 78.8046 155.694 78.7164C155.449 78.6281 155.223 78.4918 155.031 78.3155C154.864 78.1603 154.732 77.9722 154.642 77.7631C154.552 77.554 154.506 77.3286 154.508 77.1009C154.493 76.7392 154.594 76.3823 154.797 76.0826C155.051 75.7478 155.355 75.4546 155.699 75.2137L155.792 75.1343L155.671 75.0035C155.512 74.8353 155.391 74.6998 155.302 74.5971C155.192 74.4512 155.096 74.2947 155.017 74.1299C154.916 73.9365 154.862 73.7221 154.858 73.504C154.849 73.2716 154.892 73.0402 154.984 72.8267C155.076 72.6132 155.215 72.4232 155.391 72.2707C155.723 71.9693 156.156 71.8027 156.605 71.8036C157.079 71.7903 157.54 71.9572 157.895 72.2707C158.061 72.4217 158.193 72.6075 158.28 72.8149C158.367 73.0224 158.408 73.2464 158.399 73.4713C158.373 73.7774 158.275 74.0729 158.113 74.3336C157.95 74.5944 157.728 74.8127 157.465 74.9708L157.119 75.2277L158.38 76.5357L159.889 74.854V76.0872L158.955 77.1476L160.492 78.7312L159.212 78.7172ZM156.46 77.9698C156.69 77.974 156.915 77.9071 157.105 77.7783C157.335 77.6234 157.542 77.4379 157.722 77.2271L157.75 77.1897L156.376 75.7462L156.035 76.0032C155.865 76.1152 155.723 76.2666 155.623 76.4447C155.523 76.6227 155.468 76.8221 155.461 77.0262C155.464 77.2726 155.565 77.5077 155.741 77.6802C155.833 77.7771 155.945 77.8532 156.069 77.9032C156.193 77.9531 156.327 77.9758 156.46 77.9698ZM155.774 73.4386C155.824 73.8037 156.009 74.1368 156.292 74.3728L156.502 74.6017L156.97 74.2561C157.115 74.1682 157.237 74.0461 157.325 73.9004C157.413 73.7547 157.464 73.5898 157.474 73.4199C157.476 73.311 157.456 73.2029 157.414 73.1024C157.372 73.0018 157.31 72.9111 157.231 72.836C157.15 72.7571 157.053 72.6954 156.947 72.6545C156.841 72.6135 156.728 72.5943 156.615 72.5977C156.402 72.597 156.196 72.6771 156.04 72.822C155.951 72.8973 155.881 72.9921 155.835 73.0991C155.789 73.2061 155.768 73.3222 155.774 73.4386Z" fill="white"/>
<path d="M79.5931 89.4193H77.2574V82.6505H79.6212C80.0444 82.6391 80.4656 82.7131 80.8597 82.868C81.2538 83.0229 81.6126 83.2555 81.9148 83.5521C82.234 83.8811 82.4818 84.2725 82.6426 84.7018C82.8033 85.131 82.8736 85.5889 82.8491 86.0466C82.8745 86.5016 82.8045 86.9569 82.6436 87.3833C82.4827 87.8096 82.2344 88.1976 81.9148 88.5224C81.6072 88.8192 81.2433 89.0515 80.8446 89.2055C80.4459 89.3595 80.0204 89.4322 79.5931 89.4193ZM78.1917 88.5878H79.5931C79.8984 88.5967 80.2023 88.5428 80.4859 88.4295C80.7695 88.3162 81.0269 88.1459 81.2421 87.9292C81.4697 87.6767 81.6448 87.3815 81.7571 87.0607C81.8693 86.7399 81.9166 86.3999 81.8961 86.0606C81.9188 85.7176 81.8735 85.3735 81.7629 85.0481C81.6523 84.7226 81.4785 84.4222 81.2515 84.1641C81.0408 83.943 80.7859 83.7688 80.5034 83.6529C80.2208 83.537 79.917 83.4819 79.6118 83.4914H78.2104L78.1917 88.5878Z" fill="white"/>
<path d="M93.9623 89.4193H89.8468V82.6505H93.9623V83.5194H90.7811V85.5982H93.668V86.4764H90.7811V88.5505H93.9623V89.4193Z" fill="white"/>
<path d="M103.394 88.2141L105.454 82.6505H106.439L103.833 89.4193H102.899L100.348 82.6505H101.371L103.394 88.2141Z" fill="white"/>
<path d="M117.254 89.4193H113.138V82.6505H117.254V83.5194H114.077V85.5982H116.959V86.4764H114.077V88.5505H117.254V89.4193Z" fill="white"/>
<path d="M128.53 89.4193H124.396V82.6505H125.331V88.5411H128.53V89.4193Z" fill="white"/>
<path d="M134.594 86.0279C134.586 85.5135 134.685 85.003 134.883 84.5284C135.057 84.1068 135.32 83.7276 135.654 83.4166C135.973 83.1302 136.34 82.9024 136.738 82.7439C137.542 82.4265 138.437 82.4265 139.242 82.7439C139.64 82.9014 140.008 83.1292 140.326 83.4166C140.657 83.7349 140.914 84.1226 141.078 84.5518C141.278 85.026 141.378 85.5365 141.372 86.0513C141.386 86.7229 141.212 87.385 140.867 87.9619C140.568 88.4774 140.131 88.8995 139.606 89.1811C139.102 89.4458 138.541 89.5842 137.971 89.5842C137.402 89.5842 136.84 89.4458 136.336 89.1811C135.81 88.8996 135.371 88.4775 135.07 87.9619C134.732 87.3753 134.566 86.7047 134.594 86.0279ZM136.261 84.0659C135.799 84.6162 135.546 85.3117 135.546 86.0302C135.546 86.7488 135.799 87.4443 136.261 87.9946C136.723 88.4465 137.344 88.6996 137.99 88.6996C138.636 88.6996 139.256 88.4465 139.718 87.9946C140.18 87.4443 140.433 86.7488 140.433 86.0302C140.433 85.3117 140.18 84.6162 139.718 84.0659C139.255 83.6162 138.635 83.3646 137.99 83.3646C137.344 83.3646 136.724 83.6162 136.261 84.0659Z" fill="white"/>
<path d="M150.888 86.6492H149.36V89.4193H148.426V82.6505H150.888C151.164 82.6399 151.44 82.6849 151.7 82.7828C151.959 82.8807 152.196 83.0295 152.396 83.2204C152.587 83.4066 152.736 83.6301 152.836 83.8769C152.936 84.1237 152.983 84.3885 152.976 84.6545C152.985 84.9201 152.938 85.1845 152.838 85.4308C152.738 85.677 152.588 85.8996 152.396 86.084C152.195 86.2743 151.958 86.4224 151.699 86.5195C151.44 86.6165 151.164 86.6607 150.888 86.6492ZM149.36 85.8083H150.715C151.061 85.8276 151.402 85.7178 151.672 85.5C151.789 85.395 151.88 85.2656 151.941 85.1211C152.001 84.9766 152.029 84.8204 152.023 84.6639C152.029 84.5046 152.001 84.3457 151.941 84.1981C151.88 84.0506 151.789 83.9179 151.672 83.809C151.405 83.5855 151.063 83.4719 150.715 83.4913H149.36V85.8083Z" fill="white"/>
<path d="M167.144 89.4193H166.21V84.15L163.902 89.4193H163.033L160.739 84.15V89.4193H159.805V82.6505H161.076L163.5 88.1581L165.906 82.6505H167.153L167.144 89.4193Z" fill="white"/>
<path d="M178.706 89.4193H174.59V82.6505H178.706V83.5194H175.529V85.5982H178.411V86.4764H175.529V88.5505H178.706V89.4193Z" fill="white"/>
<path d="M191.43 89.4193H190.459L186.801 83.8978V89.4193H185.867V82.6505H187.119L190.496 87.8217V82.6505H191.43V89.4193Z" fill="white"/>
<path d="M203.576 83.5194H201.31V89.4193H200.376V83.5194H198.115V82.6505H203.576V83.5194Z" fill="white"/>
<defs>
<linearGradient id="paint0_linear_7_7" x1="28.1894" y1="22.9504" x2="79.9248" y2="42.2245" gradientUnits="userSpaceOnUse">
<stop stop-color="#38EF7D"/>
<stop offset="1" stop-color="#6EF3A0"/>
</linearGradient>
</defs>
</svg>
