<?xml version="1.0" encoding="utf-8"?>
<!-- Generator: Adobe Illustrator 28.3.0, SVG Export Plug-In . SVG Version: 6.00 Build 0)  -->
<svg version="1.1" id="Capa_1" xmlns="http://www.w3.org/2000/svg" xmlns:xlink="http://www.w3.org/1999/xlink" x="0px" y="0px"
	 viewBox="0 0 780 221.38" style="enable-background:new 0 0 780 221.38;" xml:space="preserve">
<style type="text/css">
	.st0{fill:#FFFFFF;}
	.st1{fill:#F6C657;}
	.st2{fill:#ED702E;}
	.st3{fill:#88CFD5;}
	.st4{fill:#6BA457;}
	.st5{fill:#55C0F4;}
	.st6{fill:#EF3E38;stroke:#491C19;stroke-width:10;stroke-miterlimit:10;}
	.st7{fill:none;stroke:#491C19;stroke-width:10;stroke-linecap:round;stroke-linejoin:round;stroke-miterlimit:10;}
	.st8{fill:#F6C657;stroke:#491218;stroke-miterlimit:10;}
	.st9{fill:#FFFFFF;stroke:#501612;stroke-miterlimit:10;}
	.st10{fill:#ED702E;stroke:#4E171A;stroke-miterlimit:10;}
	.st11{fill:#88CFD5;stroke:#4E171A;stroke-miterlimit:10;}
	.st12{fill:#6BA457;stroke:#4E171A;stroke-miterlimit:10;}
	.st13{fill:none;stroke:#ED702E;stroke-width:3;stroke-linecap:round;stroke-linejoin:round;stroke-miterlimit:10;}
	.st14{fill:none;stroke:#88CFD5;stroke-width:3;stroke-linecap:round;stroke-linejoin:round;stroke-miterlimit:10;}
	.st15{fill:none;stroke:#6BA457;stroke-width:3;stroke-linecap:round;stroke-linejoin:round;stroke-miterlimit:10;}
	.st16{fill:#5B5B5B;}
	.st17{fill:#C1C1C1;}
</style>
<g>
	<g>
		<path class="st0" d="M167.3,39.44H66.41c-11.47,0-20.8,9.33-20.8,20.8v100.89c0,11.47,9.33,20.8,20.8,20.8H167.3
			c11.47,0,20.8-9.33,20.8-20.8V60.24C188.1,48.77,178.77,39.44,167.3,39.44z M66.41,49.44H167.3c5.96,0,10.8,4.85,10.8,10.8v5.88
			h-23.64c-3.18,0-6.17,1.24-8.41,3.49L125.8,89.85c-0.35,0.35-0.84,0.56-1.34,0.56H55.6V60.24C55.6,54.28,60.45,49.44,66.41,49.44z
			 M167.3,171.94H66.41c-5.96,0-10.8-4.85-10.8-10.8V100.4h68.86c3.18,0,6.17-1.24,8.41-3.49l20.24-20.24
			c0.36-0.36,0.84-0.56,1.34-0.56h23.64v85.02C178.1,167.09,173.26,171.94,167.3,171.94z"/>
		<g>
			<path class="st1" d="M81.43,150.54l-12.33-7.12c-1.33-0.77-3,0.19-3,1.73v14.23c0,1.54,1.67,2.5,3,1.73L81.43,154
				C82.76,153.23,82.76,151.31,81.43,150.54z"/>
		</g>
		<g>
			<circle class="st2" cx="102.94" cy="62.51" r="4.83"/>
		</g>
		<g>
			<circle class="st3" cx="117.05" cy="62.51" r="4.83"/>
		</g>
		<g>
			<circle class="st4" cx="131.17" cy="62.51" r="4.83"/>
		</g>
		<g>
			<g>
				<circle class="st5" cx="77.1" cy="70.49" r="13.2"/>
			</g>
			<g>
				<circle class="st0" cx="77.1" cy="70.49" r="3.88"/>
			</g>
		</g>
	</g>
	<g>
		<g>
			<path class="st0" d="M287.07,77.88c-2.48-1.37-5.38-2.32-8.7-2.85c-3.32-0.53-6.88-0.8-10.68-0.8h-52.74v48.63h19v-12.54h33.74
				c3.8,0,7.36-0.18,10.68-0.53c3.32-0.35,6.22-1.09,8.7-2.2c2.48-1.11,4.43-2.81,5.85-5.09c1.42-2.28,2.13-5.37,2.13-9.27
				c0-3.9-0.71-7.09-2.13-9.58C291.51,81.17,289.56,79.25,287.07,77.88z M274.5,96.31c-1.04,0.48-2.32,0.72-3.84,0.72h-36.7v-7.6
				h36.7c1.52,0,2.8,0.23,3.84,0.68c1.04,0.46,1.56,1.5,1.56,3.12C276.06,94.8,275.53,95.83,274.5,96.31z"/>
			<path class="st0" d="M353.38,86.5c-5.29-1.34-11.94-2.01-19.95-2.01c-8.06,0-14.76,0.67-20.1,2.01
				c-5.35,1.34-9.35,3.47-12.01,6.38c-2.66,2.91-3.99,6.72-3.99,11.44c0,4.71,1.33,8.51,3.99,11.4c2.66,2.89,6.66,4.99,12.01,6.31
				c5.34,1.32,12.04,1.98,20.1,1.98c8,0,14.65-0.66,19.95-1.98c5.29-1.32,9.26-3.42,11.89-6.31c2.63-2.89,3.95-6.69,3.95-11.4
				c0-4.71-1.32-8.52-3.95-11.44C362.63,89.97,358.67,87.85,353.38,86.5z M348.63,109.15c-1.32,1.29-3.24,2.25-5.78,2.89
				c-2.53,0.63-5.67,0.95-9.42,0.95c-3.8,0-7-0.32-9.61-0.95c-2.61-0.63-4.57-1.6-5.89-2.89s-1.98-2.9-1.98-4.83
				c0-1.98,0.67-3.61,2.01-4.9c1.34-1.29,3.32-2.27,5.93-2.93c2.61-0.66,5.79-0.99,9.54-0.99c3.8,0,6.96,0.33,9.5,0.99
				c2.53,0.66,4.45,1.65,5.74,2.96s1.94,2.94,1.94,4.86C350.6,106.25,349.94,107.86,348.63,109.15z"/>
			<polygon class="st0" points="435.94,85.63 411.77,85.63 390.04,101.66 415.42,122.87 438.52,122.87 412.61,101.83 			"/>
			<rect x="371.5" y="70.43" class="st0" width="18.24" height="52.43"/>
			<path class="st0" d="M503.88,93.19c-2.33-3.06-5.95-5.28-10.87-6.65s-11.22-2.05-18.92-2.05c-7.85,0-14.54,0.63-20.06,1.9
				c-5.52,1.27-9.74,3.36-12.65,6.27c-2.91,2.91-4.37,6.8-4.37,11.67c0,4.91,1.49,8.81,4.48,11.7c2.99,2.89,7.26,4.94,12.8,6.16
				c5.55,1.22,12.15,1.82,19.8,1.82c7.24,0,13.21-0.6,17.9-1.79c4.69-1.19,8.26-2.87,10.71-5.05c2.46-2.18,3.91-4.74,4.37-7.68
				h-17.93c-0.56,1.12-2.24,1.98-5.05,2.58c-2.81,0.61-6.4,0.91-10.75,0.91c-4.21,0-7.56-0.34-10.07-1.03
				c-2.51-0.68-4.36-1.58-5.55-2.7c-1.19-1.11-1.91-2.33-2.17-3.65h51.68C507.32,100.4,506.2,96.26,503.88,93.19z M456.08,100.75
				c0.51-1.17,2.17-2.33,4.98-3.5c2.81-1.17,6.9-1.75,12.27-1.75c5.47,0,9.45,0.54,11.93,1.63c2.48,1.09,3.9,2.29,4.26,3.61H456.08z
				"/>
			<polygon class="st0" points="502.58,65.72 478.27,65.72 462.92,77.12 481.23,77.12 			"/>
			<path class="st0" d="M564.44,97.23c-0.16-0.35-0.34-0.7-0.53-1.04c-1.37-2.43-3.34-4.52-5.93-6.27s-5.7-3.09-9.35-4.03
				c-3.65-0.94-7.75-1.41-12.31-1.41c-5.47,0-10.33,0.74-14.59,2.2c-4.26,1.47-7.61,3.67-10.07,6.61
				c-2.46,2.94-3.69,6.59-3.69,10.94c0,4.15,1.23,7.7,3.69,10.64c2.46,2.94,5.81,5.18,10.07,6.73s9.12,2.32,14.59,2.32
				c4.56,0,8.66-0.47,12.31-1.41c3.65-0.94,6.76-2.28,9.35-4.03c2.58-1.75,4.56-3.82,5.93-6.23c0.21-0.36,0.39-0.73,0.57-1.11
				c0.05,2.17,0.16,4.19,0.34,6.05c0.25,2.61,0.48,4.5,0.69,5.66h17.17V70.43h-18.24V97.23z M561.51,109.19
				c-1.95,1.17-4.54,1.99-7.75,2.47c-3.22,0.48-6.75,0.72-10.6,0.72c-3.45,0-6.38-0.3-8.82-0.91c-2.43-0.61-4.28-1.52-5.55-2.74
				s-1.9-2.71-1.9-4.48c0-2.74,1.42-4.77,4.25-6.12c2.84-1.34,6.84-2.01,12.01-2.01c3.85,0,7.38,0.23,10.6,0.68s5.8,1.27,7.75,2.43
				c1.95,1.17,2.93,2.84,2.93,5.02C564.44,106.38,563.46,108.02,561.51,109.19z"/>
			<path class="st0" d="M656.92,109.49h-17.93c-0.56,1.12-2.24,1.98-5.05,2.58c-2.81,0.61-6.4,0.91-10.75,0.91
				c-4.21,0-7.56-0.34-10.07-1.03c-2.51-0.68-4.36-1.58-5.55-2.7c-1.19-1.11-1.91-2.33-2.17-3.65h51.68
				c0.1-5.22-1.02-9.36-3.34-12.42c-2.33-3.06-5.95-5.28-10.87-6.65s-11.22-2.05-18.92-2.05c-7.85,0-14.54,0.63-20.06,1.9
				c-5.52,1.27-9.74,3.36-12.65,6.27c-2.91,2.91-4.37,6.8-4.37,11.67c0,4.91,1.49,8.81,4.48,11.7c2.99,2.89,7.26,4.94,12.8,6.16
				c5.55,1.22,12.15,1.82,19.8,1.82c7.24,0,13.21-0.6,17.9-1.79c4.69-1.19,8.26-2.87,10.71-5.05
				C655.01,114.99,656.46,112.43,656.92,109.49z M610.91,97.26c2.81-1.17,6.9-1.75,12.27-1.75c5.47,0,9.45,0.54,11.93,1.63
				c2.48,1.09,3.9,2.29,4.26,3.61h-33.44C606.44,99.59,608.1,98.42,610.91,97.26z"/>
			<polygon class="st0" points="725.84,122.87 699.62,103.42 724.32,85.63 701.98,85.63 689.18,95.76 675.23,85.63 652.89,85.63 
				678.04,104.29 652.89,122.87 675.23,122.87 688.5,111.97 703.5,122.87 			"/>
		</g>
		<g>
			<path class="st0" d="M227.11,135.08c-0.45-0.34-0.97-0.59-1.57-0.76s-1.24-0.25-1.93-0.25H216v12.27h2.52v-3.98h5.08
				c0.68,0,1.33-0.07,1.93-0.22s1.12-0.38,1.57-0.7c0.45-0.32,0.8-0.74,1.05-1.26s0.38-1.14,0.38-1.88c0-0.75-0.13-1.38-0.38-1.92
				S227.56,135.42,227.11,135.08z M225.43,139.82c-0.39,0.36-0.92,0.54-1.59,0.54h-5.31v-4.12h5.31c0.67,0,1.2,0.18,1.59,0.53
				c0.39,0.35,0.59,0.87,0.59,1.54C226.02,138.95,225.82,139.46,225.43,139.82z"/>
			<path class="st0" d="M259.1,134.6c-1.15-0.51-2.55-0.77-4.19-0.77c-1.63,0-3.03,0.26-4.18,0.77c-1.16,0.51-2.04,1.24-2.66,2.19
				s-0.92,2.09-0.92,3.43c0,1.33,0.31,2.47,0.92,3.42c0.61,0.95,1.5,1.68,2.66,2.19c1.16,0.51,2.55,0.77,4.18,0.77
				c1.64,0,3.04-0.26,4.19-0.77c1.15-0.51,2.03-1.24,2.65-2.19c0.61-0.95,0.92-2.09,0.92-3.42c0-1.34-0.31-2.48-0.92-3.43
				S260.25,135.11,259.1,134.6z M259.37,142.58c-0.44,0.62-1.04,1.08-1.8,1.38c-0.76,0.3-1.65,0.46-2.67,0.46
				c-1,0-1.89-0.15-2.67-0.46c-0.78-0.3-1.4-0.77-1.84-1.38c-0.44-0.62-0.66-1.4-0.66-2.35c0-0.95,0.22-1.73,0.66-2.35
				c0.44-0.62,1.06-1.08,1.84-1.39c0.78-0.31,1.67-0.46,2.67-0.46c1.01,0,1.9,0.15,2.67,0.46c0.77,0.31,1.37,0.78,1.8,1.39
				c0.44,0.62,0.66,1.4,0.66,2.35C260.03,141.17,259.81,141.96,259.37,142.58z"/>
			<polygon class="st0" points="294.45,134.08 290.87,134.08 284.34,139.88 284.34,134.08 281.82,134.08 281.82,146.35 
				284.34,146.35 284.34,139.92 291.68,146.35 295.32,146.35 287.69,139.85 			"/>
			<polygon class="st0" points="316.47,141.23 324.21,141.23 324.21,139.24 316.47,139.24 316.47,136.18 325.92,136.18 
				325.92,134.08 313.95,134.08 313.95,146.35 325.94,146.35 325.94,144.25 316.47,144.25 			"/>
			<polygon class="st0" points="354.17,144.16 347.75,134.08 345.23,134.08 345.23,146.35 347.75,146.35 347.75,138.58 
				352.78,146.35 355.6,146.35 360.63,138.55 360.63,146.35 363.15,146.35 363.15,134.08 360.63,134.08 			"/>
			<path class="st0" d="M394.26,134.6c-1.15-0.51-2.55-0.77-4.19-0.77c-1.63,0-3.03,0.26-4.18,0.77c-1.16,0.51-2.04,1.24-2.66,2.19
				s-0.92,2.09-0.92,3.43c0,1.33,0.31,2.47,0.92,3.42c0.61,0.95,1.5,1.68,2.66,2.19c1.16,0.51,2.55,0.77,4.18,0.77
				c1.64,0,3.04-0.26,4.19-0.77c1.15-0.51,2.03-1.24,2.64-2.19c0.61-0.95,0.92-2.09,0.92-3.42c0-1.34-0.31-2.48-0.92-3.43
				S395.41,135.11,394.26,134.6z M394.53,142.58c-0.44,0.62-1.04,1.08-1.8,1.38c-0.77,0.3-1.65,0.46-2.67,0.46
				c-1,0-1.89-0.15-2.67-0.46c-0.78-0.3-1.4-0.77-1.84-1.38c-0.44-0.62-0.66-1.4-0.66-2.35c0-0.95,0.22-1.73,0.66-2.35
				c0.44-0.62,1.06-1.08,1.84-1.39c0.78-0.31,1.67-0.46,2.67-0.46c1.01,0,1.9,0.15,2.67,0.46c0.77,0.31,1.37,0.78,1.8,1.39
				c0.44,0.62,0.66,1.4,0.66,2.35C395.19,141.17,394.97,141.96,394.53,142.58z"/>
			<polygon class="st0" points="428.63,143.06 419.51,134.08 416.98,134.08 416.98,146.35 419.51,146.35 419.51,137.44 
				428.63,146.35 431.15,146.35 431.15,134.08 428.63,134.08 			"/>
			<polygon class="st0" points="495.81,141.23 503.55,141.23 503.55,139.24 495.81,139.24 495.81,136.18 505.26,136.18 
				505.26,134.08 493.29,134.08 493.29,146.35 505.28,146.35 505.28,144.25 495.81,144.25 			"/>
			<polygon class="st0" points="537.1,134.08 534.03,134.08 530.53,138.38 527.11,134.08 524.04,134.08 529.08,140.12 
				523.85,146.35 526.92,146.35 530.49,141.86 533.96,146.35 537.16,146.35 531.94,140.11 			"/>
			<path class="st0" d="M567.12,135.08c-0.45-0.34-0.97-0.59-1.57-0.76c-0.6-0.16-1.24-0.25-1.93-0.25h-7.61v12.27h2.52v-3.98h5.08
				c0.68,0,1.32-0.07,1.93-0.22c0.6-0.15,1.12-0.38,1.57-0.7c0.45-0.32,0.8-0.74,1.05-1.26c0.25-0.52,0.38-1.14,0.38-1.88
				c0-0.75-0.13-1.38-0.38-1.92C567.92,135.86,567.57,135.42,567.12,135.08z M565.44,139.82c-0.39,0.36-0.92,0.54-1.59,0.54h-5.31
				v-4.12h5.31c0.67,0,1.2,0.18,1.59,0.53c0.39,0.35,0.59,0.87,0.59,1.54C566.03,138.95,565.83,139.46,565.44,139.82z"/>
			<polygon class="st0" points="590.14,134.08 587.62,134.08 587.62,146.35 598.29,146.35 598.29,144.25 590.14,144.25 			"/>
			<path class="st0" d="M628.83,134.6c-1.15-0.51-2.55-0.77-4.19-0.77c-1.63,0-3.03,0.26-4.18,0.77c-1.16,0.51-2.04,1.24-2.66,2.19
				s-0.92,2.09-0.92,3.43c0,1.33,0.31,2.47,0.92,3.42c0.61,0.95,1.5,1.68,2.66,2.19c1.16,0.51,2.55,0.77,4.18,0.77
				c1.64,0,3.04-0.26,4.19-0.77c1.15-0.51,2.03-1.24,2.64-2.19c0.61-0.95,0.92-2.09,0.92-3.42c0-1.34-0.31-2.48-0.92-3.43
				S629.98,135.11,628.83,134.6z M629.11,142.58c-0.44,0.62-1.04,1.08-1.8,1.38c-0.77,0.3-1.65,0.46-2.67,0.46
				c-1,0-1.89-0.15-2.67-0.46c-0.78-0.3-1.4-0.77-1.84-1.38s-0.66-1.4-0.66-2.35c0-0.95,0.22-1.73,0.66-2.35
				c0.44-0.62,1.06-1.08,1.84-1.39c0.78-0.31,1.68-0.46,2.67-0.46c1.01,0,1.9,0.15,2.67,0.46c0.77,0.31,1.37,0.78,1.8,1.39
				c0.44,0.62,0.66,1.4,0.66,2.35C629.76,141.17,629.54,141.96,629.11,142.58z"/>
			<path class="st0" d="M663.44,140.26c0.36-0.25,0.64-0.58,0.84-0.99c0.2-0.4,0.3-0.9,0.3-1.48c0-0.86-0.2-1.56-0.59-2.11
				c-0.39-0.55-0.94-0.96-1.64-1.21c-0.7-0.26-1.53-0.39-2.48-0.39h-8.33v12.27h2.52v-4.53h4.76c0.8,0,1.41,0.05,1.83,0.15
				c0.42,0.1,0.72,0.28,0.88,0.54s0.25,0.62,0.25,1.09v2.75h2.52v-2.92c0-0.68-0.14-1.2-0.43-1.55c-0.28-0.35-0.71-0.59-1.28-0.72
				c-0.32-0.07-0.7-0.13-1.12-0.16c0.24-0.04,0.47-0.09,0.7-0.16C662.66,140.71,663.08,140.51,663.44,140.26z M661.5,139.33
				c-0.37,0.34-0.91,0.51-1.62,0.51h-5.8v-3.6h5.8c0.71,0,1.25,0.15,1.62,0.44c0.37,0.29,0.56,0.71,0.56,1.27
				C662.06,138.53,661.88,138.99,661.5,139.33z"/>
			<polygon class="st0" points="686.44,141.23 694.17,141.23 694.17,139.24 686.44,139.24 686.44,136.18 695.88,136.18 
				695.88,134.08 683.91,134.08 683.91,146.35 695.9,146.35 695.9,144.25 686.44,144.25 			"/>
			<path class="st0" d="M726.25,141.16c-0.32-0.07-0.7-0.13-1.12-0.16c0.24-0.04,0.47-0.09,0.7-0.16c0.47-0.13,0.88-0.33,1.24-0.58
				c0.36-0.25,0.64-0.58,0.84-0.99c0.2-0.4,0.3-0.9,0.3-1.48c0-0.86-0.2-1.56-0.59-2.11c-0.39-0.55-0.94-0.96-1.64-1.21
				c-0.7-0.26-1.53-0.39-2.47-0.39h-8.33v12.27h2.52v-4.53h4.76c0.8,0,1.41,0.05,1.83,0.15c0.42,0.1,0.72,0.28,0.88,0.54
				c0.17,0.26,0.25,0.62,0.25,1.09v2.75h2.52v-2.92c0-0.68-0.14-1.2-0.43-1.55C727.24,141.54,726.82,141.3,726.25,141.16z
				 M717.71,139.84v-3.6h5.8c0.71,0,1.25,0.15,1.62,0.44c0.37,0.29,0.56,0.71,0.56,1.27c0,0.58-0.19,1.04-0.56,1.38
				c-0.37,0.34-0.91,0.51-1.62,0.51H717.71z"/>
		</g>
		<g>
			<g>
				<path class="st2" d="M552.82,162.2H389.6c-0.83,0-1.5-0.67-1.5-1.5s0.67-1.5,1.5-1.5h163.22c0.83,0,1.5,0.67,1.5,1.5
					S553.65,162.2,552.82,162.2z"/>
			</g>
			<g>
				<path class="st3" d="M726.71,162.7H563.5c-0.83,0-1.5-0.67-1.5-1.5s0.67-1.5,1.5-1.5h163.22c0.83,0,1.5,0.67,1.5,1.5
					S727.54,162.7,726.71,162.7z"/>
			</g>
			<g>
				<path class="st4" d="M380.6,162.2H217.39c-0.83,0-1.5-0.67-1.5-1.5s0.67-1.5,1.5-1.5H380.6c0.83,0,1.5,0.67,1.5,1.5
					S381.43,162.2,380.6,162.2z"/>
			</g>
		</g>
	</g>
</g>
</svg>
