<svg width="705" height="161" viewBox="0 0 705 161" fill="none" xmlns="http://www.w3.org/2000/svg">
<path d="M124.69 150.48H35.79C21.57 150.48 10 138.91 10 124.69V35.79C10 21.57 21.57 10 35.79 10H124.7C138.92 10 150.49 21.57 150.49 35.79V124.7C150.49 138.92 138.92 150.49 124.7 150.49L124.69 150.48ZM35.79 21C27.64 21 21 27.63 21 35.79V124.7C21 132.85 27.63 139.49 35.79 139.49H124.7C132.85 139.49 139.49 132.86 139.49 124.7V35.79C139.49 27.64 132.86 21 124.7 21H35.79Z" fill="#EF3E38"/>
<path d="M144.53 74.1099L142.56 63.2899L110.19 69.1899C107.94 63.0599 103.88 57.7699 98.4001 53.9799C83.9201 43.9599 63.9901 47.5899 53.9701 62.0699C50.0901 67.6799 48.2701 74.1099 48.3201 80.4599L15.5601 86.4299L17.5301 97.2499L50.2901 91.2799C52.4801 97.2399 56.4501 102.61 62.0601 106.49C67.5901 110.32 73.9101 112.15 80.1801 112.15C90.3201 112.15 100.3 107.34 106.49 98.3999C110.28 92.9199 112.22 86.5399 112.16 80.0099L144.53 74.1099ZM97.4501 92.1499C90.8801 101.64 77.8201 104.02 68.3301 97.4599C58.8401 90.8899 56.4601 77.8299 63.0201 68.3399C67.0801 62.4699 73.6201 59.3199 80.2601 59.3199C84.3701 59.3199 88.5101 60.5199 92.1401 63.0299C96.7401 66.2099 99.8201 70.9899 100.82 76.4899C101.82 81.9899 100.62 87.5499 97.4401 92.1499H97.4501Z" fill="#EF3E38"/>
<path d="M80.24 94.98C88.3807 94.98 94.98 88.3807 94.98 80.24C94.98 72.0993 88.3807 65.5 80.24 65.5C72.0993 65.5 65.5 72.0993 65.5 80.24C65.5 88.3807 72.0993 94.98 80.24 94.98Z" fill="#F6C657"/>
<path d="M253.61 51.9651C251.13 50.5951 248.23 49.6451 244.91 49.1151C241.59 48.5851 238.03 48.3151 234.23 48.3151H181.49V96.9451H200.49V84.4051H234.23C238.03 84.4051 241.59 84.2251 244.91 83.8751C248.23 83.5251 251.13 82.7851 253.61 81.6751C256.09 80.5651 258.04 78.8651 259.46 76.5851C260.88 74.3051 261.59 71.2151 261.59 67.3151C261.59 63.4151 260.88 60.2251 259.46 57.7351C258.04 55.2551 256.09 53.3251 253.61 51.9551V51.9651ZM241.04 70.3951C240 70.8751 238.72 71.1151 237.2 71.1151H200.5V63.5151H237.2C238.72 63.5151 240 63.7451 241.04 64.1951C242.08 64.6551 242.6 65.6951 242.6 67.3151C242.6 68.9351 242.08 69.9151 241.04 70.3951Z" fill="#2F2F2F"/>
<path d="M319.92 60.5851C314.63 59.2451 307.98 58.5751 299.97 58.5751C291.96 58.5751 285.21 59.2451 279.87 60.5851C274.52 61.9251 270.52 64.0551 267.86 66.9651C265.2 69.8751 263.87 73.6851 263.87 78.4051C263.87 83.1251 265.2 86.9151 267.86 89.8051C270.52 92.6951 274.52 94.7951 279.87 96.1151C285.21 97.4351 291.91 98.0951 299.97 98.0951C308.03 98.0951 314.62 97.4351 319.92 96.1151C325.21 94.7951 329.18 92.6951 331.81 89.8051C334.44 86.9151 335.76 83.1151 335.76 78.4051C335.76 73.6951 334.44 69.8851 331.81 66.9651C329.18 64.0551 325.21 61.9251 319.92 60.5851ZM315.17 83.2351C313.85 84.5251 311.93 85.4851 309.39 86.1251C306.86 86.7551 303.72 87.0751 299.97 87.0751C296.22 87.0751 292.97 86.7551 290.36 86.1251C287.75 85.4951 285.79 84.5251 284.47 83.2351C283.15 81.9451 282.49 80.3351 282.49 78.4051C282.49 76.4751 283.16 74.7951 284.5 73.5051C285.84 72.2151 287.82 71.2351 290.43 70.5751C293.04 69.9151 296.22 69.5851 299.97 69.5851C303.72 69.5851 306.93 69.9151 309.47 70.5751C312 71.2351 313.92 72.2251 315.21 73.5351C316.5 74.8451 317.15 76.4751 317.15 78.3951C317.15 80.3151 316.49 81.9251 315.17 83.2251V83.2351Z" fill="#2F2F2F"/>
<path d="M402.48 59.7151H378.31L356.58 75.7451L381.96 96.9551H405.06L379.15 75.9151L402.48 59.7151Z" fill="#2F2F2F"/>
<path d="M356.28 44.515H338.04V96.945H356.28V44.515Z" fill="#2F2F2F"/>
<path d="M470.42 67.2751C468.09 64.2151 464.47 61.9951 459.55 60.6251C454.63 59.2551 448.33 58.5751 440.63 58.5751C432.93 58.5751 426.09 59.2051 420.57 60.4751C415.05 61.7451 410.83 63.8351 407.92 66.7451C405.01 69.6551 403.55 73.5451 403.55 78.4151C403.55 83.2851 405.04 87.2251 408.03 90.1151C411.02 93.0051 415.29 95.0551 420.83 96.2751C426.38 97.4951 432.98 98.0951 440.63 98.0951C447.87 98.0951 453.84 97.4951 458.53 96.3051C463.22 95.1151 466.79 93.4351 469.24 91.2551C471.7 89.0751 473.15 86.5151 473.61 83.5751H455.68C455.12 84.6951 453.44 85.5551 450.63 86.1551C447.82 86.7651 444.23 87.0651 439.88 87.0651C435.53 87.0651 432.32 86.7251 429.81 86.0351C427.3 85.3551 425.45 84.4551 424.26 83.3351C423.07 82.2251 422.35 81.0051 422.09 79.6851H473.77C473.87 74.4651 472.75 70.3251 470.43 67.2651L470.42 67.2751ZM422.62 74.8351C423.13 73.6651 424.79 72.5051 427.6 71.3351C430.41 70.1651 434.5 69.5851 439.87 69.5851C445.24 69.5851 449.32 70.1251 451.8 71.2151C454.28 72.3051 455.7 73.5051 456.06 74.8251H422.62V74.8351Z" fill="#2F2F2F"/>
<path d="M469.12 39.8051H444.81L429.46 51.2051H447.77L469.12 39.8051Z" fill="#2F2F2F"/>
<path d="M530.98 71.315C530.82 70.965 530.64 70.615 530.45 70.275C529.08 67.845 527.11 65.755 524.52 64.005C521.93 62.255 518.82 60.915 515.17 59.975C511.52 59.035 507.42 58.565 502.86 58.565C497.39 58.565 492.53 59.305 488.27 60.765C484.01 62.235 480.66 64.435 478.2 67.375C475.74 70.315 474.51 73.965 474.51 78.315C474.51 82.665 475.74 86.015 478.2 88.955C480.66 91.895 484.01 94.135 488.27 95.685C492.53 97.235 497.39 98.005 502.86 98.005C507.42 98.005 511.52 97.535 515.17 96.595C518.82 95.655 521.93 94.315 524.52 92.565C527.1 90.815 529.08 88.745 530.45 86.335C530.66 85.975 530.84 85.605 531.02 85.225C531.07 87.395 531.18 89.415 531.36 91.275C531.61 93.885 531.84 95.775 532.05 96.935H549.22V44.505H530.98V71.305V71.315ZM528.05 83.275C526.1 84.445 523.51 85.265 520.3 85.745C517.08 86.225 513.55 86.465 509.7 86.465C506.25 86.465 503.32 86.165 500.88 85.555C498.45 84.945 496.6 84.035 495.33 82.815C494.06 81.595 493.43 80.105 493.43 78.335C493.43 75.595 494.85 73.565 497.68 72.215C500.52 70.875 504.52 70.205 509.69 70.205C513.54 70.205 517.07 70.435 520.29 70.885C523.51 71.335 526.09 72.155 528.04 73.315C529.99 74.485 530.97 76.155 530.97 78.335C530.97 80.515 529.99 82.105 528.04 83.275H528.05Z" fill="#2F2F2F"/>
<path d="M623.46 83.5751H605.53C604.97 84.6951 603.29 85.5551 600.48 86.1551C597.67 86.7651 594.08 87.0651 589.73 87.0651C585.38 87.0651 582.17 86.7251 579.66 86.0351C577.15 85.3551 575.3 84.4551 574.11 83.3351C572.92 82.2251 572.2 81.0051 571.94 79.6851H623.62C623.72 74.4651 622.6 70.3251 620.28 67.2651C617.95 64.2051 614.33 61.9851 609.41 60.6151C604.49 59.2451 598.19 58.5651 590.49 58.5651C582.79 58.5651 575.95 59.1951 570.43 60.4651C564.91 61.7351 560.69 63.8251 557.78 66.7351C554.87 69.6451 553.41 73.5351 553.41 78.4051C553.41 83.2751 554.9 87.2151 557.89 90.1051C560.88 92.9951 565.15 95.0451 570.69 96.2651C576.24 97.4851 582.84 98.0851 590.49 98.0851C597.73 98.0851 603.7 97.4851 608.39 96.2951C613.08 95.1051 616.65 93.4251 619.1 91.2451C621.56 89.0651 623.01 86.5051 623.47 83.5651L623.46 83.5751ZM577.45 71.3451C580.26 70.1751 584.35 69.5951 589.72 69.5951C595.09 69.5951 599.17 70.1351 601.65 71.2251C604.13 72.3151 605.55 73.5151 605.91 74.8351H572.47C572.98 73.6651 574.64 72.5051 577.45 71.3351V71.3451Z" fill="#2F2F2F"/>
<path d="M692.38 96.9551L666.16 77.5051L690.86 59.7151H668.52L655.72 69.8451L641.77 59.7151H619.43L644.58 78.3751L619.43 96.9551H641.77L655.04 86.0551L670.04 96.9551H692.38Z" fill="#2F2F2F"/>
<path d="M193.65 109.165C193.2 108.825 192.68 108.575 192.08 108.405C191.48 108.235 190.84 108.155 190.15 108.155H182.54V120.425H185.06V116.445H190.14C190.82 116.445 191.47 116.375 192.07 116.225C192.67 116.075 193.19 115.845 193.64 115.525C194.09 115.205 194.44 114.785 194.69 114.265C194.94 113.745 195.07 113.125 195.07 112.385C195.07 111.645 194.94 111.005 194.69 110.465C194.44 109.925 194.09 109.495 193.64 109.155L193.65 109.165ZM191.97 113.905C191.58 114.265 191.05 114.445 190.38 114.445H185.07V110.325H190.38C191.05 110.325 191.58 110.505 191.97 110.855C192.36 111.205 192.56 111.725 192.56 112.395C192.56 113.065 192.36 113.545 191.97 113.905Z" fill="#6E6E6E"/>
<path d="M225.64 108.685C224.49 108.175 223.09 107.915 221.45 107.915C219.81 107.915 218.42 108.175 217.27 108.685C216.11 109.195 215.23 109.925 214.61 110.875C213.99 111.825 213.69 112.965 213.69 114.305C213.69 115.645 214 116.775 214.61 117.725C215.22 118.675 216.11 119.405 217.27 119.915C218.43 120.425 219.82 120.685 221.45 120.685C223.08 120.685 224.49 120.425 225.64 119.915C226.79 119.405 227.67 118.675 228.29 117.725C228.9 116.775 229.21 115.635 229.21 114.305C229.21 112.975 228.9 111.825 228.29 110.875C227.68 109.925 226.79 109.195 225.64 108.685ZM225.91 116.665C225.47 117.285 224.87 117.745 224.11 118.045C223.35 118.345 222.46 118.505 221.44 118.505C220.42 118.505 219.55 118.355 218.77 118.045C217.99 117.745 217.37 117.275 216.93 116.665C216.49 116.045 216.27 115.265 216.27 114.315C216.27 113.365 216.49 112.585 216.93 111.965C217.37 111.345 217.99 110.885 218.77 110.575C219.55 110.265 220.44 110.115 221.44 110.115C222.44 110.115 223.34 110.265 224.11 110.575C224.88 110.885 225.48 111.355 225.91 111.965C226.35 112.585 226.57 113.365 226.57 114.315C226.57 115.265 226.35 116.045 225.91 116.665Z" fill="#6E6E6E"/>
<path d="M260.99 108.165H257.41L250.88 113.965V108.165H248.36V120.435H250.88V114.005L258.22 120.435H261.86L254.23 113.935L260.99 108.165Z" fill="#6E6E6E"/>
<path d="M283.01 115.315H290.75V113.325H283.01V110.265H292.46V108.165H280.49V120.435H292.48V118.335H283.01V115.315Z" fill="#6E6E6E"/>
<path d="M320.71 118.245L314.29 108.165H311.77V120.435H314.29V112.665L319.32 120.435H322.14L327.17 112.635V120.435H329.69V108.165H327.17L320.71 118.245Z" fill="#6E6E6E"/>
<path d="M360.8 108.685C359.65 108.175 358.25 107.915 356.61 107.915C354.97 107.915 353.58 108.175 352.43 108.685C351.27 109.195 350.39 109.925 349.77 110.875C349.15 111.825 348.85 112.965 348.85 114.305C348.85 115.645 349.16 116.775 349.77 117.725C350.38 118.675 351.27 119.405 352.43 119.915C353.59 120.425 354.98 120.685 356.61 120.685C358.24 120.685 359.65 120.425 360.8 119.915C361.95 119.405 362.83 118.675 363.44 117.725C364.05 116.775 364.36 115.635 364.36 114.305C364.36 112.975 364.05 111.825 363.44 110.875C362.83 109.925 361.95 109.195 360.8 108.685ZM361.07 116.665C360.63 117.285 360.03 117.745 359.27 118.045C358.5 118.345 357.62 118.505 356.6 118.505C355.58 118.505 354.71 118.355 353.93 118.045C353.15 117.745 352.53 117.275 352.09 116.665C351.65 116.045 351.43 115.265 351.43 114.315C351.43 113.365 351.65 112.585 352.09 111.965C352.53 111.345 353.15 110.885 353.93 110.575C354.71 110.265 355.6 110.115 356.6 110.115C357.6 110.115 358.5 110.265 359.27 110.575C360.04 110.885 360.64 111.355 361.07 111.965C361.51 112.585 361.73 113.365 361.73 114.315C361.73 115.265 361.51 116.045 361.07 116.665Z" fill="#6E6E6E"/>
<path d="M395.17 117.145L386.05 108.165H383.52V120.435H386.05V111.525L395.17 120.435H397.69V108.165H395.17V117.145Z" fill="#6E6E6E"/>
<path d="M462.35 115.315H470.09V113.325H462.35V110.265H471.8V108.165H459.83V120.435H471.82V118.335H462.35V115.315Z" fill="#6E6E6E"/>
<path d="M503.64 108.165H500.57L497.07 112.465L493.65 108.165H490.58L495.62 114.205L490.39 120.435H493.46L497.03 115.945L500.5 120.435H503.7L498.48 114.195L503.64 108.165Z" fill="#6E6E6E"/>
<path d="M533.66 109.165C533.21 108.825 532.69 108.575 532.09 108.405C531.49 108.245 530.85 108.155 530.16 108.155H522.55V120.425H525.07V116.445H530.15C530.83 116.445 531.47 116.375 532.08 116.225C532.68 116.075 533.2 115.845 533.65 115.525C534.1 115.205 534.45 114.785 534.7 114.265C534.95 113.745 535.08 113.125 535.08 112.385C535.08 111.645 534.95 111.005 534.7 110.465C534.45 109.935 534.09 109.495 533.65 109.155L533.66 109.165ZM531.98 113.905C531.59 114.265 531.06 114.445 530.39 114.445H525.08V110.325H530.39C531.06 110.325 531.59 110.505 531.98 110.855C532.37 111.205 532.57 111.725 532.57 112.395C532.57 113.065 532.37 113.545 531.98 113.905Z" fill="#6E6E6E"/>
<path d="M556.68 108.165H554.16V120.435H564.83V118.335H556.68V108.165Z" fill="#6E6E6E"/>
<path d="M595.37 108.685C594.22 108.175 592.82 107.915 591.18 107.915C589.54 107.915 588.15 108.175 587 108.685C585.84 109.195 584.96 109.925 584.34 110.875C583.72 111.825 583.42 112.965 583.42 114.305C583.42 115.645 583.73 116.775 584.34 117.725C584.95 118.675 585.84 119.405 587 119.915C588.16 120.425 589.55 120.685 591.18 120.685C592.81 120.685 594.22 120.425 595.37 119.915C596.52 119.405 597.4 118.675 598.01 117.725C598.62 116.775 598.93 115.635 598.93 114.305C598.93 112.975 598.62 111.825 598.01 110.875C597.4 109.925 596.52 109.195 595.37 108.685ZM595.65 116.665C595.21 117.285 594.61 117.745 593.85 118.045C593.08 118.345 592.2 118.505 591.18 118.505C590.16 118.505 589.29 118.355 588.51 118.045C587.73 117.745 587.11 117.275 586.67 116.665C586.23 116.055 586.01 115.265 586.01 114.315C586.01 113.365 586.23 112.585 586.67 111.965C587.11 111.345 587.73 110.885 588.51 110.575C589.29 110.265 590.19 110.115 591.18 110.115C592.17 110.115 593.08 110.265 593.85 110.575C594.62 110.885 595.22 111.355 595.65 111.965C596.09 112.585 596.31 113.365 596.31 114.315C596.31 115.265 596.09 116.045 595.65 116.665Z" fill="#6E6E6E"/>
<path d="M629.98 114.345C630.34 114.095 630.62 113.765 630.82 113.355C631.02 112.955 631.12 112.455 631.12 111.875C631.12 111.015 630.92 110.315 630.53 109.765C630.14 109.215 629.59 108.805 628.89 108.555C628.19 108.295 627.36 108.165 626.41 108.165H618.08V120.435H620.6V115.905H625.36C626.16 115.905 626.77 115.955 627.19 116.055C627.61 116.155 627.91 116.335 628.07 116.595C628.23 116.855 628.32 117.215 628.32 117.685V120.435H630.84V117.515C630.84 116.835 630.7 116.315 630.41 115.965C630.13 115.615 629.7 115.375 629.13 115.245C628.81 115.175 628.43 115.115 628.01 115.085C628.25 115.045 628.48 114.995 628.71 114.925C629.18 114.795 629.59 114.595 629.95 114.345H629.98ZM628.04 113.415C627.67 113.755 627.13 113.925 626.42 113.925H620.62V110.325H626.42C627.13 110.325 627.67 110.475 628.04 110.765C628.41 111.055 628.6 111.475 628.6 112.035C628.6 112.595 628.41 113.075 628.04 113.415Z" fill="#6E6E6E"/>
<path d="M652.98 115.315H660.71V113.325H652.98V110.265H662.42V108.165H650.45V120.435H662.44V118.335H652.98V115.315Z" fill="#6E6E6E"/>
<path d="M692.79 115.245C692.47 115.175 692.09 115.115 691.67 115.085C691.91 115.045 692.14 114.995 692.37 114.925C692.84 114.795 693.25 114.595 693.61 114.345C693.97 114.095 694.25 113.765 694.45 113.355C694.65 112.955 694.75 112.455 694.75 111.875C694.75 111.015 694.55 110.315 694.16 109.765C693.77 109.215 693.22 108.805 692.52 108.555C691.82 108.295 690.99 108.165 690.05 108.165H681.72V120.435H684.24V115.905H689C689.8 115.905 690.41 115.955 690.83 116.055C691.25 116.155 691.55 116.335 691.71 116.595C691.88 116.855 691.96 117.215 691.96 117.685V120.435H694.48V117.515C694.48 116.835 694.34 116.315 694.05 115.965C693.76 115.615 693.34 115.375 692.77 115.245H692.79ZM684.25 113.925V110.325H690.05C690.76 110.325 691.3 110.475 691.67 110.765C692.04 111.055 692.23 111.475 692.23 112.035C692.23 112.595 692.04 113.075 691.67 113.415C691.3 113.755 690.76 113.925 690.05 113.925H684.25Z" fill="#6E6E6E"/>
</svg>
