<svg width="296" height="241" viewBox="0 0 296 241" fill="none" xmlns="http://www.w3.org/2000/svg">
<rect x="112.32" y="22" width="131.447" height="21.5921" rx="10.7961" fill="#E6E6E6"/>
<rect x="40" y="183.307" width="131.447" height="21.5921" rx="10.7961" fill="#E6E6E6"/>
<path d="M285.656 151.108C285.656 160.104 278.363 167.396 269.367 167.396H28.2551C19.259 167.396 11.9662 160.104 11.9662 151.108C11.9662 142.112 19.259 134.819 28.255 134.819H37.3465C47.3886 134.819 55.5293 126.678 55.5293 116.636C55.5293 106.594 47.3886 98.4531 37.3465 98.4531H22.5729C10.2295 98.4531 0.223145 88.4468 0.223145 76.1034C0.223145 63.7599 10.2295 53.7536 22.5729 53.7536H272.966C285.309 53.7536 295.316 63.7599 295.316 76.1034C295.316 88.4468 285.309 98.4531 272.966 98.4531H260.844C250.802 98.4531 242.661 106.594 242.661 116.636C242.661 126.678 250.802 134.819 260.844 134.819H269.367C278.363 134.819 285.656 142.112 285.656 151.108Z" fill="#E6E6E6"/>
<circle cx="264.791" cy="32.7961" r="10.7961" fill="#E6E6E6"/>
<path d="M200.22 5.82007H88.42C79.9038 5.82007 73 12.7238 73 21.2401V201.56C73 210.076 79.9038 216.98 88.42 216.98H200.22C208.736 216.98 215.64 210.076 215.64 201.56V21.2401C215.64 12.7238 208.736 5.82007 200.22 5.82007Z" fill="#EF3E38" stroke="#491C19" stroke-width="9.76" stroke-miterlimit="10"/>
<path d="M194 182.95H112.18L87.8601 169.02V78.8201C87.8601 75.6701 90.9001 73.1201 94.6501 73.1201H194.01C197.76 73.1201 200.8 75.6701 200.8 78.8201V177.25C200.8 180.4 197.76 182.95 194.01 182.95H194Z" fill="#BBECFF" stroke="#501612" stroke-width="1.95" stroke-miterlimit="10"/>
<path d="M214.79 34.54H183.96C181.99 34.54 180.1 35.32 178.71 36.72L156.92 58.51C155.53 59.9 153.64 60.69 151.67 60.69H74.48" stroke="#491C19" stroke-width="9.76" stroke-linecap="round" stroke-linejoin="round"/>
<path d="M104.72 192.68L90.9901 184.75C89.6901 184 88.0601 184.94 88.0601 186.44V202.3C88.0601 203.8 89.6901 204.74 90.9901 203.99L104.72 196.06C106.02 195.31 106.02 193.43 104.72 192.68Z" fill="#F6C657" stroke="#491218" stroke-width="2.93" stroke-miterlimit="10"/>
<path d="M100.68 44.3001C107.219 44.3001 112.52 38.9991 112.52 32.4601C112.52 25.921 107.219 20.6201 100.68 20.6201C94.141 20.6201 88.8401 25.921 88.8401 32.4601C88.8401 38.9991 94.141 44.3001 100.68 44.3001Z" fill="white" stroke="#501612" stroke-width="1.95" stroke-miterlimit="10"/>
<path d="M123.5 29.9801C125.996 29.9801 128.02 27.9564 128.02 25.4601C128.02 22.9637 125.996 20.9401 123.5 20.9401C121.004 20.9401 118.98 22.9637 118.98 25.4601C118.98 27.9564 121.004 29.9801 123.5 29.9801Z" fill="#ED702E" stroke="#4E171A" stroke-width="1.95" stroke-miterlimit="10"/>
<path d="M137.55 29.9801C140.046 29.9801 142.07 27.9564 142.07 25.4601C142.07 22.9637 140.046 20.9401 137.55 20.9401C135.054 20.9401 133.03 22.9637 133.03 25.4601C133.03 27.9564 135.054 29.9801 137.55 29.9801Z" fill="#88CFD5" stroke="#4E171A" stroke-width="1.95" stroke-miterlimit="10"/>
<path d="M151.6 29.9801C154.096 29.9801 156.12 27.9564 156.12 25.4601C156.12 22.9637 154.096 20.9401 151.6 20.9401C149.104 20.9401 147.08 22.9637 147.08 25.4601C147.08 27.9564 149.104 29.9801 151.6 29.9801Z" fill="#6BA457" stroke="#4E171A" stroke-width="1.95" stroke-miterlimit="10"/>
<path d="M100.68 42.69C106.33 42.69 110.91 38.1099 110.91 32.46C110.91 26.8102 106.33 22.23 100.68 22.23C95.0301 22.23 90.45 26.8102 90.45 32.46C90.45 38.1099 95.0301 42.69 100.68 42.69Z" fill="#55C0F4"/>
<path d="M100.68 36.2301C102.762 36.2301 104.45 34.5422 104.45 32.4601C104.45 30.3779 102.762 28.6901 100.68 28.6901C98.5978 28.6901 96.9099 30.3779 96.9099 32.4601C96.9099 34.5422 98.5978 36.2301 100.68 36.2301Z" fill="white"/>
<path d="M184.53 172.92H118.29L98.6001 161.64V88.62C98.6001 86.07 101.06 84 104.09 84H184.52C187.55 84 190.01 86.07 190.01 88.62V168.3C190.01 170.85 187.55 172.92 184.52 172.92H184.53Z" fill="white"/>
<path d="M129.048 124.024C129.048 127.903 125.903 131.048 122.024 131.048C118.145 131.048 115 127.903 115 124.024C115 120.145 118.145 117 122.024 117C125.903 117 129.048 120.145 129.048 124.024Z" fill="#491C19"/>
<path d="M174.048 124.024C174.048 127.903 170.903 131.048 167.024 131.048C163.145 131.048 160 127.903 160 124.024C160 120.145 163.145 117 167.024 117C170.903 117 174.048 120.145 174.048 124.024Z" fill="#491C19"/>
<path d="M130 138.071C130 137.296 130.629 136.667 131.405 136.667H156.69C157.466 136.667 158.095 137.296 158.095 138.071C158.095 138.847 157.466 139.476 156.69 139.476H131.405C130.629 139.476 130 138.847 130 138.071Z" fill="#491C19"/>
<path d="M217.151 157.17C195.106 157.17 177.17 175.106 177.17 197.151C177.17 197.476 177.174 197.801 177.182 198.126C186.316 194.747 195.764 192.213 205.299 190.59L205.434 191.376C207.052 184.474 213.256 179.314 220.645 179.314C227.106 179.314 232.663 183.253 235.039 188.857L235.051 188.437C242.222 188.611 249.448 189.297 256.564 190.467C253.375 171.592 236.915 157.17 217.147 157.17H217.151Z" fill="#EF3E38"/>
<path d="M254.137 189.71C247.973 189.202 241.587 188.853 235.424 188.869C235.067 188.869 234.765 188.651 234.622 188.345C233.901 186.933 232.964 185.636 231.862 184.514C223.608 175.871 208.972 179.322 205.391 190.705C205.279 191.11 204.938 191.399 204.55 191.471C202.483 191.836 200.413 192.189 198.358 192.617C192.159 193.874 186.039 195.465 179.966 197.25C185.741 194.569 191.782 192.455 197.938 190.82C199.996 190.285 202.063 189.765 204.149 189.341L203.308 190.106C207.83 174.257 229.423 172.548 236.276 187.572L235.479 187.048C241.758 187.425 248.017 188.266 254.137 189.718V189.71Z" fill="white"/>
<path d="M220.066 209.569C212.494 209.569 206.164 204.155 204.74 197C195.483 198.654 186.324 201.208 177.487 204.592C181.374 222.595 197.418 236.124 216.568 236.124C238.339 236.124 256.1 218.632 256.536 196.964C249.651 195.747 242.638 195.017 235.673 194.783C235.233 203.009 228.403 209.569 220.07 209.569H220.066Z" fill="white"/>
<g style="mix-blend-mode:multiply" opacity="0.1">
<path d="M243.083 165.36C248.933 172.448 252.447 181.535 252.447 191.443C252.447 214.087 234.091 232.447 211.443 232.447C201.535 232.447 192.448 228.933 185.361 223.083C192.881 232.193 204.26 238 216.996 238C239.64 238 258 219.644 258 196.996C258 184.26 252.193 172.881 243.083 165.36Z" fill="black"/>
</g>
<path d="M217 238C239.644 238 258 219.644 258 197C258 174.356 239.644 156 217 156C194.356 156 176 174.356 176 197C176 219.644 194.356 238 217 238Z" stroke="#491C19" stroke-width="5" stroke-linecap="round" stroke-linejoin="round"/>
<path d="M176 202.402C186.848 198.297 202.134 193.859 220.82 192.486C235.328 191.423 247.902 192.502 257.706 194.073" stroke="#491C19" stroke-width="7.30202" stroke-miterlimit="10"/>
<path d="M220.498 209.395C228.564 209.395 235.102 202.856 235.102 194.791C235.102 186.725 228.564 180.187 220.498 180.187C212.433 180.187 205.894 186.725 205.894 194.791C205.894 202.856 212.433 209.395 220.498 209.395Z" fill="white" stroke="#491C19" stroke-width="2.04663" stroke-linecap="round" stroke-linejoin="round"/>
<g style="mix-blend-mode:multiply" opacity="0.1">
<path d="M220.498 212.171C228.564 212.171 235.102 205.633 235.102 197.567C235.102 189.502 228.564 182.963 220.498 182.963C212.433 182.963 205.894 189.502 205.894 197.567C205.894 205.633 212.433 212.171 220.498 212.171Z" fill="black"/>
</g>
<g style="mix-blend-mode:multiply" opacity="0.1">
<path d="M220.498 212.171C228.564 212.171 235.102 205.633 235.102 197.567C235.102 189.502 228.564 182.963 220.498 182.963C212.433 182.963 205.894 189.502 205.894 197.567C205.894 205.633 212.433 212.171 220.498 212.171Z" fill="black"/>
</g>
<path d="M220.498 209.395C228.564 209.395 235.102 202.856 235.102 194.791C235.102 186.725 228.564 180.187 220.498 180.187C212.433 180.187 205.894 186.725 205.894 194.791C205.894 202.856 212.433 209.395 220.498 209.395Z" fill="white" stroke="#491C19" stroke-width="2.04663" stroke-linecap="round" stroke-linejoin="round"/>
<path d="M220.498 202.247C224.616 202.247 227.955 198.909 227.955 194.791C227.955 190.672 224.616 187.334 220.498 187.334C216.38 187.334 213.042 190.672 213.042 194.791C213.042 198.909 216.38 202.247 220.498 202.247Z" fill="#F6C657" stroke="#491C19" stroke-width="2.04663" stroke-linecap="round" stroke-linejoin="round"/>
</svg>
